<mxfile host="Electron" agent="Mozilla/5.0 (Windows NT 10.0; Win64; x64) AppleWebKit/537.36 (KHTML, like Gecko) draw.io/25.0.2 Chrome/128.0.6613.186 Electron/32.2.5 Safari/537.36" version="25.0.2">
  <diagram name="Page-1" id="9f46799a-70d6-7492-0946-bef42562c5a5">
    <mxGraphModel dx="3887" dy="2693" grid="1" gridSize="10" guides="1" tooltips="1" connect="1" arrows="1" fold="1" page="1" pageScale="1" pageWidth="1100" pageHeight="850" background="none" math="0" shadow="0">
      <root>
        <mxCell id="0" />
        <mxCell id="1" parent="0" />
        <mxCell id="ZLtcyuYyuE42bDOaXPlK-97" style="rounded=0;orthogonalLoop=1;jettySize=auto;html=1;exitX=0.25;exitY=0;exitDx=0;exitDy=0;entryX=1;entryY=1;entryDx=0;entryDy=0;" parent="1" source="ZLtcyuYyuE42bDOaXPlK-46" target="ZLtcyuYyuE42bDOaXPlK-47" edge="1">
          <mxGeometry relative="1" as="geometry" />
        </mxCell>
        <mxCell id="ZLtcyuYyuE42bDOaXPlK-98" style="rounded=0;orthogonalLoop=1;jettySize=auto;html=1;exitX=0;exitY=0;exitDx=0;exitDy=0;entryX=1;entryY=0.5;entryDx=0;entryDy=0;" parent="1" source="ZLtcyuYyuE42bDOaXPlK-46" target="ZLtcyuYyuE42bDOaXPlK-76" edge="1">
          <mxGeometry relative="1" as="geometry" />
        </mxCell>
        <mxCell id="ZLtcyuYyuE42bDOaXPlK-101" style="rounded=0;orthogonalLoop=1;jettySize=auto;html=1;exitX=0;exitY=0.75;exitDx=0;exitDy=0;entryX=1;entryY=0;entryDx=0;entryDy=0;" parent="1" source="ZLtcyuYyuE42bDOaXPlK-46" target="ZLtcyuYyuE42bDOaXPlK-78" edge="1">
          <mxGeometry relative="1" as="geometry" />
        </mxCell>
        <mxCell id="ZLtcyuYyuE42bDOaXPlK-102" style="rounded=0;orthogonalLoop=1;jettySize=auto;html=1;exitX=0.25;exitY=1;exitDx=0;exitDy=0;entryX=0.5;entryY=0;entryDx=0;entryDy=0;" parent="1" source="ZLtcyuYyuE42bDOaXPlK-46" target="ZLtcyuYyuE42bDOaXPlK-87" edge="1">
          <mxGeometry relative="1" as="geometry" />
        </mxCell>
        <mxCell id="ZLtcyuYyuE42bDOaXPlK-103" style="rounded=0;orthogonalLoop=1;jettySize=auto;html=1;exitX=0.5;exitY=1;exitDx=0;exitDy=0;entryX=0.5;entryY=0;entryDx=0;entryDy=0;" parent="1" source="ZLtcyuYyuE42bDOaXPlK-46" target="ZLtcyuYyuE42bDOaXPlK-88" edge="1">
          <mxGeometry relative="1" as="geometry" />
        </mxCell>
        <mxCell id="ZLtcyuYyuE42bDOaXPlK-104" style="rounded=0;orthogonalLoop=1;jettySize=auto;html=1;exitX=0.75;exitY=1;exitDx=0;exitDy=0;entryX=0;entryY=0;entryDx=0;entryDy=0;" parent="1" source="ZLtcyuYyuE42bDOaXPlK-46" target="ZLtcyuYyuE42bDOaXPlK-89" edge="1">
          <mxGeometry relative="1" as="geometry" />
        </mxCell>
        <mxCell id="ZLtcyuYyuE42bDOaXPlK-105" style="rounded=0;orthogonalLoop=1;jettySize=auto;html=1;exitX=1;exitY=1;exitDx=0;exitDy=0;entryX=0;entryY=0.5;entryDx=0;entryDy=0;" parent="1" source="ZLtcyuYyuE42bDOaXPlK-46" target="ZLtcyuYyuE42bDOaXPlK-85" edge="1">
          <mxGeometry relative="1" as="geometry" />
        </mxCell>
        <mxCell id="ZLtcyuYyuE42bDOaXPlK-107" style="rounded=0;orthogonalLoop=1;jettySize=auto;html=1;exitX=1;exitY=0.5;exitDx=0;exitDy=0;entryX=0;entryY=0.5;entryDx=0;entryDy=0;" parent="1" source="ZLtcyuYyuE42bDOaXPlK-46" target="ZLtcyuYyuE42bDOaXPlK-90" edge="1">
          <mxGeometry relative="1" as="geometry" />
        </mxCell>
        <mxCell id="ZLtcyuYyuE42bDOaXPlK-108" style="rounded=0;orthogonalLoop=1;jettySize=auto;html=1;exitX=1;exitY=0.25;exitDx=0;exitDy=0;entryX=0;entryY=0.5;entryDx=0;entryDy=0;" parent="1" source="ZLtcyuYyuE42bDOaXPlK-46" target="ZLtcyuYyuE42bDOaXPlK-70" edge="1">
          <mxGeometry relative="1" as="geometry" />
        </mxCell>
        <mxCell id="ZLtcyuYyuE42bDOaXPlK-109" style="rounded=0;orthogonalLoop=1;jettySize=auto;html=1;exitX=1;exitY=0;exitDx=0;exitDy=0;entryX=0;entryY=0.5;entryDx=0;entryDy=0;" parent="1" source="ZLtcyuYyuE42bDOaXPlK-46" target="ZLtcyuYyuE42bDOaXPlK-65" edge="1">
          <mxGeometry relative="1" as="geometry" />
        </mxCell>
        <mxCell id="ZKtk_AyoDZIeiduYIY-5-46" style="rounded=0;orthogonalLoop=1;jettySize=auto;html=1;exitX=0.5;exitY=1;exitDx=0;exitDy=0;" parent="1" source="ZLtcyuYyuE42bDOaXPlK-46" target="ZKtk_AyoDZIeiduYIY-5-45" edge="1">
          <mxGeometry relative="1" as="geometry" />
        </mxCell>
        <mxCell id="ZKtk_AyoDZIeiduYIY-5-118" style="edgeStyle=none;rounded=0;orthogonalLoop=1;jettySize=auto;html=1;exitX=1;exitY=0.75;exitDx=0;exitDy=0;entryX=0;entryY=0.5;entryDx=0;entryDy=0;" parent="1" source="ZLtcyuYyuE42bDOaXPlK-46" target="ZKtk_AyoDZIeiduYIY-5-117" edge="1">
          <mxGeometry relative="1" as="geometry" />
        </mxCell>
        <mxCell id="ZLtcyuYyuE42bDOaXPlK-46" value="blog" style="whiteSpace=wrap;html=1;align=center;" parent="1" vertex="1">
          <mxGeometry x="210" y="140" width="90" height="40" as="geometry" />
        </mxCell>
        <mxCell id="ZLtcyuYyuE42bDOaXPlK-47" value="uid" style="ellipse;whiteSpace=wrap;html=1;align=center;fontStyle=4;" parent="1" vertex="1">
          <mxGeometry x="140" y="50" width="70" height="40" as="geometry" />
        </mxCell>
        <mxCell id="ZLtcyuYyuE42bDOaXPlK-50" value="author" style="ellipse;whiteSpace=wrap;html=1;align=center;" parent="1" vertex="1">
          <mxGeometry x="210" y="30" width="60" height="30" as="geometry" />
        </mxCell>
        <mxCell id="ZLtcyuYyuE42bDOaXPlK-65" value="title" style="ellipse;whiteSpace=wrap;html=1;align=center;" parent="1" vertex="1">
          <mxGeometry x="350" y="30" width="60" height="30" as="geometry" />
        </mxCell>
        <mxCell id="ZLtcyuYyuE42bDOaXPlK-68" value="Introduction" style="ellipse;whiteSpace=wrap;html=1;align=center;" parent="1" vertex="1">
          <mxGeometry x="270" y="30" width="70" height="40" as="geometry" />
        </mxCell>
        <mxCell id="ZLtcyuYyuE42bDOaXPlK-70" value="content" style="ellipse;whiteSpace=wrap;html=1;align=center;" parent="1" vertex="1">
          <mxGeometry x="380" y="60" width="60" height="30" as="geometry" />
        </mxCell>
        <mxCell id="ZLtcyuYyuE42bDOaXPlK-72" value="clicks" style="ellipse;whiteSpace=wrap;html=1;align=center;" parent="1" vertex="1">
          <mxGeometry x="70" y="130" width="60" height="30" as="geometry" />
        </mxCell>
        <mxCell id="ZLtcyuYyuE42bDOaXPlK-74" value="favorites" style="ellipse;whiteSpace=wrap;html=1;align=center;" parent="1" vertex="1">
          <mxGeometry x="80" y="170" width="60" height="30" as="geometry" />
        </mxCell>
        <mxCell id="ZLtcyuYyuE42bDOaXPlK-76" value="likes" style="ellipse;whiteSpace=wrap;html=1;align=center;" parent="1" vertex="1">
          <mxGeometry x="90" y="90" width="60" height="30" as="geometry" />
        </mxCell>
        <mxCell id="ZLtcyuYyuE42bDOaXPlK-78" value="cover_image" style="ellipse;whiteSpace=wrap;html=1;align=center;" parent="1" vertex="1">
          <mxGeometry x="85" y="200" width="70" height="40" as="geometry" />
        </mxCell>
        <mxCell id="ZLtcyuYyuE42bDOaXPlK-85" value="original_url" style="ellipse;whiteSpace=wrap;html=1;align=center;" parent="1" vertex="1">
          <mxGeometry x="360" y="270" width="60" height="35" as="geometry" />
        </mxCell>
        <mxCell id="ZLtcyuYyuE42bDOaXPlK-87" value="create_time" style="ellipse;whiteSpace=wrap;html=1;align=center;" parent="1" vertex="1">
          <mxGeometry x="100" y="245" width="60" height="30" as="geometry" />
        </mxCell>
        <mxCell id="ZLtcyuYyuE42bDOaXPlK-88" value="visibility_scope" style="ellipse;whiteSpace=wrap;html=1;align=center;" parent="1" vertex="1">
          <mxGeometry x="150" y="275" width="70" height="40" as="geometry" />
        </mxCell>
        <mxCell id="ZLtcyuYyuE42bDOaXPlK-89" value="admin_uid" style="ellipse;whiteSpace=wrap;html=1;align=center;" parent="1" vertex="1">
          <mxGeometry x="300" y="290" width="60" height="30" as="geometry" />
        </mxCell>
        <mxCell id="ZLtcyuYyuE42bDOaXPlK-95" style="rounded=0;orthogonalLoop=1;jettySize=auto;html=1;exitX=0.5;exitY=0;exitDx=0;exitDy=0;entryX=0.593;entryY=1.071;entryDx=0;entryDy=0;entryPerimeter=0;" parent="1" source="ZLtcyuYyuE42bDOaXPlK-46" target="ZLtcyuYyuE42bDOaXPlK-50" edge="1">
          <mxGeometry relative="1" as="geometry" />
        </mxCell>
        <mxCell id="ZLtcyuYyuE42bDOaXPlK-96" style="rounded=0;orthogonalLoop=1;jettySize=auto;html=1;exitX=0.75;exitY=0;exitDx=0;exitDy=0;entryX=0.573;entryY=0.989;entryDx=0;entryDy=0;entryPerimeter=0;" parent="1" source="ZLtcyuYyuE42bDOaXPlK-46" target="ZLtcyuYyuE42bDOaXPlK-68" edge="1">
          <mxGeometry relative="1" as="geometry" />
        </mxCell>
        <mxCell id="ZLtcyuYyuE42bDOaXPlK-99" style="rounded=0;orthogonalLoop=1;jettySize=auto;html=1;exitX=0;exitY=0.25;exitDx=0;exitDy=0;entryX=1.069;entryY=0.538;entryDx=0;entryDy=0;entryPerimeter=0;" parent="1" source="ZLtcyuYyuE42bDOaXPlK-46" target="ZLtcyuYyuE42bDOaXPlK-72" edge="1">
          <mxGeometry relative="1" as="geometry" />
        </mxCell>
        <mxCell id="ZLtcyuYyuE42bDOaXPlK-100" style="rounded=0;orthogonalLoop=1;jettySize=auto;html=1;exitX=0;exitY=0.5;exitDx=0;exitDy=0;entryX=1.036;entryY=0.348;entryDx=0;entryDy=0;entryPerimeter=0;" parent="1" source="ZLtcyuYyuE42bDOaXPlK-46" target="ZLtcyuYyuE42bDOaXPlK-74" edge="1">
          <mxGeometry relative="1" as="geometry" />
        </mxCell>
        <mxCell id="ZKtk_AyoDZIeiduYIY-5-20" style="edgeStyle=orthogonalEdgeStyle;rounded=0;orthogonalLoop=1;jettySize=auto;html=1;exitX=0.75;exitY=0;exitDx=0;exitDy=0;entryX=0;entryY=1;entryDx=0;entryDy=0;" parent="1" source="ZKtk_AyoDZIeiduYIY-5-1" target="ZKtk_AyoDZIeiduYIY-5-11" edge="1">
          <mxGeometry relative="1" as="geometry" />
        </mxCell>
        <mxCell id="ZKtk_AyoDZIeiduYIY-5-21" style="rounded=0;orthogonalLoop=1;jettySize=auto;html=1;exitX=0;exitY=0.25;exitDx=0;exitDy=0;entryX=1;entryY=0.5;entryDx=0;entryDy=0;" parent="1" source="ZKtk_AyoDZIeiduYIY-5-1" target="ZKtk_AyoDZIeiduYIY-5-5" edge="1">
          <mxGeometry relative="1" as="geometry" />
        </mxCell>
        <mxCell id="ZKtk_AyoDZIeiduYIY-5-22" style="rounded=0;orthogonalLoop=1;jettySize=auto;html=1;exitX=0;exitY=0.5;exitDx=0;exitDy=0;entryX=1;entryY=0.5;entryDx=0;entryDy=0;" parent="1" source="ZKtk_AyoDZIeiduYIY-5-1" target="ZKtk_AyoDZIeiduYIY-5-12" edge="1">
          <mxGeometry relative="1" as="geometry" />
        </mxCell>
        <mxCell id="ZKtk_AyoDZIeiduYIY-5-23" style="rounded=0;orthogonalLoop=1;jettySize=auto;html=1;exitX=0;exitY=1;exitDx=0;exitDy=0;entryX=0.5;entryY=0;entryDx=0;entryDy=0;" parent="1" source="ZKtk_AyoDZIeiduYIY-5-1" target="ZKtk_AyoDZIeiduYIY-5-13" edge="1">
          <mxGeometry relative="1" as="geometry" />
        </mxCell>
        <mxCell id="ZKtk_AyoDZIeiduYIY-5-24" style="rounded=0;orthogonalLoop=1;jettySize=auto;html=1;exitX=0.5;exitY=1;exitDx=0;exitDy=0;entryX=0.5;entryY=0;entryDx=0;entryDy=0;" parent="1" source="ZKtk_AyoDZIeiduYIY-5-1" target="ZKtk_AyoDZIeiduYIY-5-14" edge="1">
          <mxGeometry relative="1" as="geometry" />
        </mxCell>
        <mxCell id="ZKtk_AyoDZIeiduYIY-5-25" style="rounded=0;orthogonalLoop=1;jettySize=auto;html=1;exitX=1;exitY=1;exitDx=0;exitDy=0;entryX=0;entryY=0;entryDx=0;entryDy=0;" parent="1" source="ZKtk_AyoDZIeiduYIY-5-1" target="ZKtk_AyoDZIeiduYIY-5-17" edge="1">
          <mxGeometry relative="1" as="geometry" />
        </mxCell>
        <mxCell id="ZKtk_AyoDZIeiduYIY-5-26" style="rounded=0;orthogonalLoop=1;jettySize=auto;html=1;exitX=1;exitY=0.5;exitDx=0;exitDy=0;entryX=0;entryY=0.5;entryDx=0;entryDy=0;" parent="1" source="ZKtk_AyoDZIeiduYIY-5-1" target="ZKtk_AyoDZIeiduYIY-5-15" edge="1">
          <mxGeometry relative="1" as="geometry" />
        </mxCell>
        <mxCell id="ZKtk_AyoDZIeiduYIY-5-60" style="rounded=0;orthogonalLoop=1;jettySize=auto;html=1;exitX=1;exitY=0;exitDx=0;exitDy=0;entryX=0;entryY=1;entryDx=0;entryDy=0;" parent="1" source="ZKtk_AyoDZIeiduYIY-5-1" target="ZKtk_AyoDZIeiduYIY-5-59" edge="1">
          <mxGeometry relative="1" as="geometry" />
        </mxCell>
        <mxCell id="ZKtk_AyoDZIeiduYIY-5-1" value="category" style="rounded=1;arcSize=10;whiteSpace=wrap;html=1;align=center;" parent="1" vertex="1">
          <mxGeometry x="510" y="-130" width="100" height="40" as="geometry" />
        </mxCell>
        <mxCell id="ZKtk_AyoDZIeiduYIY-5-3" value="&lt;span style=&quot;color: rgba(0, 0, 0, 0); font-family: monospace; font-size: 0px; text-align: start;&quot;&gt;%3CmxGraphModel%3E%3Croot%3E%3CmxCell%20id%3D%220%22%2F%3E%3CmxCell%20id%3D%221%22%20parent%3D%220%22%2F%3E%3CmxCell%20id%3D%222%22%20value%3D%22uid%22%20style%3D%22ellipse%3BwhiteSpace%3Dwrap%3Bhtml%3D1%3Balign%3Dcenter%3BfontStyle%3D4%3B%22%20vertex%3D%221%22%20parent%3D%221%22%3E%3CmxGeometry%20x%3D%22140%22%20y%3D%2250%22%20width%3D%2270%22%20height%3D%2240%22%20as%3D%22geometry%22%2F%3E%3C%2FmxCell%3E%3C%2Froot%3E%3C%2FmxGraphModel%3E&lt;/span&gt;" style="text;html=1;align=center;verticalAlign=middle;resizable=0;points=[];autosize=1;strokeColor=none;fillColor=none;" parent="1" vertex="1">
          <mxGeometry x="490" y="-212" width="20" height="30" as="geometry" />
        </mxCell>
        <mxCell id="ZKtk_AyoDZIeiduYIY-5-5" value="uid" style="ellipse;whiteSpace=wrap;html=1;align=center;fontStyle=4;" parent="1" vertex="1">
          <mxGeometry x="420" y="-190" width="70" height="42" as="geometry" />
        </mxCell>
        <mxCell id="ZKtk_AyoDZIeiduYIY-5-10" value="category_name" style="ellipse;whiteSpace=wrap;html=1;align=center;" parent="1" vertex="1">
          <mxGeometry x="490" y="-223" width="70" height="42" as="geometry" />
        </mxCell>
        <mxCell id="ZKtk_AyoDZIeiduYIY-5-11" value="sort" style="ellipse;whiteSpace=wrap;html=1;align=center;" parent="1" vertex="1">
          <mxGeometry x="575" y="-218" width="70" height="42" as="geometry" />
        </mxCell>
        <mxCell id="ZKtk_AyoDZIeiduYIY-5-12" value="description" style="ellipse;whiteSpace=wrap;html=1;align=center;" parent="1" vertex="1">
          <mxGeometry x="400" y="-132" width="70" height="42" as="geometry" />
        </mxCell>
        <mxCell id="ZKtk_AyoDZIeiduYIY-5-13" value="status" style="ellipse;whiteSpace=wrap;html=1;align=center;" parent="1" vertex="1">
          <mxGeometry x="425" y="-78" width="70" height="42" as="geometry" />
        </mxCell>
        <mxCell id="ZKtk_AyoDZIeiduYIY-5-14" value="create_time" style="ellipse;whiteSpace=wrap;html=1;align=center;" parent="1" vertex="1">
          <mxGeometry x="495" y="-50" width="70" height="40" as="geometry" />
        </mxCell>
        <mxCell id="ZKtk_AyoDZIeiduYIY-5-15" value="parent_uid" style="ellipse;whiteSpace=wrap;html=1;align=center;" parent="1" vertex="1">
          <mxGeometry x="640" y="-110" width="70" height="40" as="geometry" />
        </mxCell>
        <mxCell id="ZKtk_AyoDZIeiduYIY-5-17" value="update_time" style="ellipse;whiteSpace=wrap;html=1;align=center;" parent="1" vertex="1">
          <mxGeometry x="590" y="-50" width="70" height="40" as="geometry" />
        </mxCell>
        <mxCell id="ZKtk_AyoDZIeiduYIY-5-19" style="rounded=0;orthogonalLoop=1;jettySize=auto;html=1;exitX=0.5;exitY=0;exitDx=0;exitDy=0;entryX=0.573;entryY=1.044;entryDx=0;entryDy=0;entryPerimeter=0;" parent="1" source="ZKtk_AyoDZIeiduYIY-5-1" target="ZKtk_AyoDZIeiduYIY-5-10" edge="1">
          <mxGeometry relative="1" as="geometry" />
        </mxCell>
        <mxCell id="ZKtk_AyoDZIeiduYIY-5-27" style="edgeStyle=orthogonalEdgeStyle;rounded=0;orthogonalLoop=1;jettySize=auto;html=1;exitX=0.75;exitY=0;exitDx=0;exitDy=0;entryX=0;entryY=1;entryDx=0;entryDy=0;" parent="1" source="ZKtk_AyoDZIeiduYIY-5-34" target="ZKtk_AyoDZIeiduYIY-5-38" edge="1">
          <mxGeometry relative="1" as="geometry" />
        </mxCell>
        <mxCell id="ZKtk_AyoDZIeiduYIY-5-28" style="rounded=0;orthogonalLoop=1;jettySize=auto;html=1;exitX=0;exitY=0.25;exitDx=0;exitDy=0;entryX=1;entryY=0.5;entryDx=0;entryDy=0;" parent="1" source="ZKtk_AyoDZIeiduYIY-5-34" target="ZKtk_AyoDZIeiduYIY-5-36" edge="1">
          <mxGeometry relative="1" as="geometry" />
        </mxCell>
        <mxCell id="ZKtk_AyoDZIeiduYIY-5-29" style="rounded=0;orthogonalLoop=1;jettySize=auto;html=1;exitX=0;exitY=0.5;exitDx=0;exitDy=0;entryX=1;entryY=0.5;entryDx=0;entryDy=0;" parent="1" source="ZKtk_AyoDZIeiduYIY-5-34" target="ZKtk_AyoDZIeiduYIY-5-39" edge="1">
          <mxGeometry relative="1" as="geometry" />
        </mxCell>
        <mxCell id="ZKtk_AyoDZIeiduYIY-5-30" style="rounded=0;orthogonalLoop=1;jettySize=auto;html=1;exitX=0;exitY=1;exitDx=0;exitDy=0;entryX=0.5;entryY=0;entryDx=0;entryDy=0;" parent="1" source="ZKtk_AyoDZIeiduYIY-5-34" target="ZKtk_AyoDZIeiduYIY-5-40" edge="1">
          <mxGeometry relative="1" as="geometry" />
        </mxCell>
        <mxCell id="ZKtk_AyoDZIeiduYIY-5-31" style="rounded=0;orthogonalLoop=1;jettySize=auto;html=1;exitX=0.5;exitY=1;exitDx=0;exitDy=0;entryX=0.5;entryY=0;entryDx=0;entryDy=0;" parent="1" source="ZKtk_AyoDZIeiduYIY-5-34" target="ZKtk_AyoDZIeiduYIY-5-41" edge="1">
          <mxGeometry relative="1" as="geometry" />
        </mxCell>
        <mxCell id="ZKtk_AyoDZIeiduYIY-5-32" style="rounded=0;orthogonalLoop=1;jettySize=auto;html=1;exitX=1;exitY=1;exitDx=0;exitDy=0;entryX=0;entryY=0;entryDx=0;entryDy=0;" parent="1" source="ZKtk_AyoDZIeiduYIY-5-34" target="ZKtk_AyoDZIeiduYIY-5-43" edge="1">
          <mxGeometry relative="1" as="geometry" />
        </mxCell>
        <mxCell id="ZKtk_AyoDZIeiduYIY-5-33" style="rounded=0;orthogonalLoop=1;jettySize=auto;html=1;exitX=1;exitY=0.5;exitDx=0;exitDy=0;entryX=0;entryY=0.5;entryDx=0;entryDy=0;" parent="1" source="ZKtk_AyoDZIeiduYIY-5-34" target="ZKtk_AyoDZIeiduYIY-5-42" edge="1">
          <mxGeometry relative="1" as="geometry" />
        </mxCell>
        <mxCell id="ZKtk_AyoDZIeiduYIY-5-115" style="edgeStyle=none;rounded=0;orthogonalLoop=1;jettySize=auto;html=1;exitX=1;exitY=0;exitDx=0;exitDy=0;entryX=0;entryY=1;entryDx=0;entryDy=0;" parent="1" source="ZKtk_AyoDZIeiduYIY-5-34" target="ZKtk_AyoDZIeiduYIY-5-113" edge="1">
          <mxGeometry relative="1" as="geometry" />
        </mxCell>
        <mxCell id="ZKtk_AyoDZIeiduYIY-5-34" value="user_category" style="rounded=1;arcSize=10;whiteSpace=wrap;html=1;align=center;" parent="1" vertex="1">
          <mxGeometry x="100" y="-302" width="100" height="40" as="geometry" />
        </mxCell>
        <mxCell id="ZKtk_AyoDZIeiduYIY-5-35" value="&lt;span style=&quot;color: rgba(0, 0, 0, 0); font-family: monospace; font-size: 0px; text-align: start;&quot;&gt;%3CmxGraphModel%3E%3Croot%3E%3CmxCell%20id%3D%220%22%2F%3E%3CmxCell%20id%3D%221%22%20parent%3D%220%22%2F%3E%3CmxCell%20id%3D%222%22%20value%3D%22uid%22%20style%3D%22ellipse%3BwhiteSpace%3Dwrap%3Bhtml%3D1%3Balign%3Dcenter%3BfontStyle%3D4%3B%22%20vertex%3D%221%22%20parent%3D%221%22%3E%3CmxGeometry%20x%3D%22140%22%20y%3D%2250%22%20width%3D%2270%22%20height%3D%2240%22%20as%3D%22geometry%22%2F%3E%3C%2FmxCell%3E%3C%2Froot%3E%3C%2FmxGraphModel%3E&lt;/span&gt;" style="text;html=1;align=center;verticalAlign=middle;resizable=0;points=[];autosize=1;strokeColor=none;fillColor=none;" parent="1" vertex="1">
          <mxGeometry x="80" y="-384" width="20" height="30" as="geometry" />
        </mxCell>
        <mxCell id="ZKtk_AyoDZIeiduYIY-5-36" value="uid" style="ellipse;whiteSpace=wrap;html=1;align=center;fontStyle=4;" parent="1" vertex="1">
          <mxGeometry x="15" y="-342" width="70" height="42" as="geometry" />
        </mxCell>
        <mxCell id="ZKtk_AyoDZIeiduYIY-5-37" value="category_name" style="ellipse;whiteSpace=wrap;html=1;align=center;" parent="1" vertex="1">
          <mxGeometry x="85" y="-372" width="70" height="42" as="geometry" />
        </mxCell>
        <mxCell id="ZKtk_AyoDZIeiduYIY-5-38" value="sort" style="ellipse;whiteSpace=wrap;html=1;align=center;" parent="1" vertex="1">
          <mxGeometry x="160" y="-400" width="70" height="42" as="geometry" />
        </mxCell>
        <mxCell id="ZKtk_AyoDZIeiduYIY-5-39" value="description" style="ellipse;whiteSpace=wrap;html=1;align=center;" parent="1" vertex="1">
          <mxGeometry y="-282" width="70" height="42" as="geometry" />
        </mxCell>
        <mxCell id="ZKtk_AyoDZIeiduYIY-5-40" value="status" style="ellipse;whiteSpace=wrap;html=1;align=center;" parent="1" vertex="1">
          <mxGeometry x="50" y="-232" width="70" height="42" as="geometry" />
        </mxCell>
        <mxCell id="ZKtk_AyoDZIeiduYIY-5-41" value="create_time" style="ellipse;whiteSpace=wrap;html=1;align=center;" parent="1" vertex="1">
          <mxGeometry x="130" y="-222" width="70" height="40" as="geometry" />
        </mxCell>
        <mxCell id="ZKtk_AyoDZIeiduYIY-5-42" value="parent_uid" style="ellipse;whiteSpace=wrap;html=1;align=center;" parent="1" vertex="1">
          <mxGeometry x="250" y="-290" width="70" height="40" as="geometry" />
        </mxCell>
        <mxCell id="ZKtk_AyoDZIeiduYIY-5-43" value="update_time" style="ellipse;whiteSpace=wrap;html=1;align=center;" parent="1" vertex="1">
          <mxGeometry x="210" y="-250" width="70" height="40" as="geometry" />
        </mxCell>
        <mxCell id="ZKtk_AyoDZIeiduYIY-5-44" style="rounded=0;orthogonalLoop=1;jettySize=auto;html=1;exitX=0.5;exitY=0;exitDx=0;exitDy=0;entryX=0.573;entryY=1.044;entryDx=0;entryDy=0;entryPerimeter=0;" parent="1" source="ZKtk_AyoDZIeiduYIY-5-34" target="ZKtk_AyoDZIeiduYIY-5-37" edge="1">
          <mxGeometry relative="1" as="geometry" />
        </mxCell>
        <mxCell id="ZKtk_AyoDZIeiduYIY-5-45" value="update_time" style="ellipse;whiteSpace=wrap;html=1;align=center;" parent="1" vertex="1">
          <mxGeometry x="230" y="285" width="70" height="40" as="geometry" />
        </mxCell>
        <mxCell id="ZKtk_AyoDZIeiduYIY-5-47" value="系统分类" style="shape=rhombus;perimeter=rhombusPerimeter;whiteSpace=wrap;html=1;align=center;" parent="1" vertex="1">
          <mxGeometry x="530" y="140" width="120" height="60" as="geometry" />
        </mxCell>
        <mxCell id="ZKtk_AyoDZIeiduYIY-5-50" value="" style="endArrow=none;html=1;rounded=0;entryX=0;entryY=0.5;entryDx=0;entryDy=0;exitX=1;exitY=0.5;exitDx=0;exitDy=0;fillColor=#21FF72;strokeColor=#30F036;" parent="1" source="ZLtcyuYyuE42bDOaXPlK-46" target="ZKtk_AyoDZIeiduYIY-5-47" edge="1">
          <mxGeometry relative="1" as="geometry">
            <mxPoint x="470" y="260" as="sourcePoint" />
            <mxPoint x="630" y="260" as="targetPoint" />
          </mxGeometry>
        </mxCell>
        <mxCell id="ZKtk_AyoDZIeiduYIY-5-52" value="" style="endArrow=none;html=1;rounded=0;exitX=0.5;exitY=0;exitDx=0;exitDy=0;entryX=0.5;entryY=1;entryDx=0;entryDy=0;strokeColor=#30F036;" parent="1" source="ZKtk_AyoDZIeiduYIY-5-47" target="ZKtk_AyoDZIeiduYIY-5-1" edge="1">
          <mxGeometry relative="1" as="geometry">
            <mxPoint x="540" y="80" as="sourcePoint" />
            <mxPoint x="700" y="80" as="targetPoint" />
          </mxGeometry>
        </mxCell>
        <mxCell id="ZKtk_AyoDZIeiduYIY-5-53" value="M" style="text;html=1;align=center;verticalAlign=middle;resizable=0;points=[];autosize=1;strokeColor=none;fillColor=none;" parent="1" vertex="1">
          <mxGeometry x="480" y="170" width="30" height="30" as="geometry" />
        </mxCell>
        <mxCell id="ZKtk_AyoDZIeiduYIY-5-54" value="N" style="text;html=1;align=center;verticalAlign=middle;resizable=0;points=[];autosize=1;strokeColor=none;fillColor=none;" parent="1" vertex="1">
          <mxGeometry x="595" y="98" width="30" height="30" as="geometry" />
        </mxCell>
        <mxCell id="ZKtk_AyoDZIeiduYIY-5-55" value="用户自定义分类" style="shape=rhombus;perimeter=rhombusPerimeter;whiteSpace=wrap;html=1;align=center;" parent="1" vertex="1">
          <mxGeometry x="20" y="-100" width="120" height="60" as="geometry" />
        </mxCell>
        <mxCell id="ZKtk_AyoDZIeiduYIY-5-56" value="" style="endArrow=none;html=1;rounded=0;exitX=0.5;exitY=1;exitDx=0;exitDy=0;entryX=0;entryY=0;entryDx=0;entryDy=0;strokeColor=#30F036;" parent="1" source="ZKtk_AyoDZIeiduYIY-5-55" target="ZLtcyuYyuE42bDOaXPlK-46" edge="1">
          <mxGeometry relative="1" as="geometry">
            <mxPoint x="120" y="-40" as="sourcePoint" />
            <mxPoint x="280" y="-40" as="targetPoint" />
          </mxGeometry>
        </mxCell>
        <mxCell id="ZKtk_AyoDZIeiduYIY-5-57" value="" style="endArrow=none;html=1;rounded=0;exitX=0.5;exitY=0;exitDx=0;exitDy=0;strokeColor=#30F036;" parent="1" source="ZKtk_AyoDZIeiduYIY-5-55" edge="1">
          <mxGeometry relative="1" as="geometry">
            <mxPoint x="190" y="-110" as="sourcePoint" />
            <mxPoint x="140" y="-260" as="targetPoint" />
          </mxGeometry>
        </mxCell>
        <mxCell id="ZKtk_AyoDZIeiduYIY-5-70" style="edgeStyle=none;rounded=0;orthogonalLoop=1;jettySize=auto;html=1;exitX=0.5;exitY=0;exitDx=0;exitDy=0;entryX=0.5;entryY=1;entryDx=0;entryDy=0;" parent="1" source="ZKtk_AyoDZIeiduYIY-5-58" target="ZKtk_AyoDZIeiduYIY-5-62" edge="1">
          <mxGeometry relative="1" as="geometry" />
        </mxCell>
        <mxCell id="ZKtk_AyoDZIeiduYIY-5-73" style="edgeStyle=none;rounded=0;orthogonalLoop=1;jettySize=auto;html=1;exitX=0.75;exitY=1;exitDx=0;exitDy=0;entryX=0;entryY=0;entryDx=0;entryDy=0;" parent="1" source="ZKtk_AyoDZIeiduYIY-5-58" target="ZKtk_AyoDZIeiduYIY-5-67" edge="1">
          <mxGeometry relative="1" as="geometry" />
        </mxCell>
        <mxCell id="ZKtk_AyoDZIeiduYIY-5-75" style="edgeStyle=none;rounded=0;orthogonalLoop=1;jettySize=auto;html=1;exitX=0;exitY=1;exitDx=0;exitDy=0;entryX=1;entryY=0;entryDx=0;entryDy=0;" parent="1" source="ZKtk_AyoDZIeiduYIY-5-58" target="ZKtk_AyoDZIeiduYIY-5-68" edge="1">
          <mxGeometry relative="1" as="geometry" />
        </mxCell>
        <mxCell id="ZKtk_AyoDZIeiduYIY-5-77" style="edgeStyle=none;rounded=0;orthogonalLoop=1;jettySize=auto;html=1;exitX=0;exitY=0;exitDx=0;exitDy=0;entryX=1;entryY=1;entryDx=0;entryDy=0;" parent="1" source="ZKtk_AyoDZIeiduYIY-5-58" target="ZKtk_AyoDZIeiduYIY-5-61" edge="1">
          <mxGeometry relative="1" as="geometry" />
        </mxCell>
        <mxCell id="ZKtk_AyoDZIeiduYIY-5-58" value="comment" style="rounded=1;arcSize=10;whiteSpace=wrap;html=1;align=center;" parent="1" vertex="1">
          <mxGeometry x="-330" y="-50" width="100" height="40" as="geometry" />
        </mxCell>
        <mxCell id="ZKtk_AyoDZIeiduYIY-5-59" value="clicks" style="ellipse;whiteSpace=wrap;html=1;align=center;" parent="1" vertex="1">
          <mxGeometry x="625" y="-172" width="70" height="42" as="geometry" />
        </mxCell>
        <mxCell id="ZKtk_AyoDZIeiduYIY-5-61" value="uid" style="ellipse;whiteSpace=wrap;html=1;align=center;fontStyle=4;" parent="1" vertex="1">
          <mxGeometry x="-400" y="-120" width="70" height="40" as="geometry" />
        </mxCell>
        <mxCell id="ZKtk_AyoDZIeiduYIY-5-62" value="user_uid" style="ellipse;whiteSpace=wrap;html=1;align=center;" parent="1" vertex="1">
          <mxGeometry x="-320" y="-140" width="70" height="40" as="geometry" />
        </mxCell>
        <mxCell id="ZKtk_AyoDZIeiduYIY-5-63" value="blog_uid" style="ellipse;whiteSpace=wrap;html=1;align=center;" parent="1" vertex="1">
          <mxGeometry x="-430" y="-60" width="70" height="40" as="geometry" />
        </mxCell>
        <mxCell id="ZKtk_AyoDZIeiduYIY-5-65" value="content" style="ellipse;whiteSpace=wrap;html=1;align=center;" parent="1" vertex="1">
          <mxGeometry x="-240" y="-130" width="70" height="40" as="geometry" />
        </mxCell>
        <mxCell id="ZKtk_AyoDZIeiduYIY-5-66" value="parent_uid" style="ellipse;whiteSpace=wrap;html=1;align=center;" parent="1" vertex="1">
          <mxGeometry x="-200" y="-80" width="70" height="40" as="geometry" />
        </mxCell>
        <mxCell id="ZKtk_AyoDZIeiduYIY-5-67" value="likes" style="ellipse;whiteSpace=wrap;html=1;align=center;" parent="1" vertex="1">
          <mxGeometry x="-250" y="30" width="70" height="40" as="geometry" />
        </mxCell>
        <mxCell id="ZKtk_AyoDZIeiduYIY-5-68" value="create_time" style="ellipse;whiteSpace=wrap;html=1;align=center;" parent="1" vertex="1">
          <mxGeometry x="-410" y="10" width="70" height="40" as="geometry" />
        </mxCell>
        <mxCell id="ZKtk_AyoDZIeiduYIY-5-69" value="update_time" style="ellipse;whiteSpace=wrap;html=1;align=center;" parent="1" vertex="1">
          <mxGeometry x="-330" y="40" width="70" height="40" as="geometry" />
        </mxCell>
        <mxCell id="ZKtk_AyoDZIeiduYIY-5-71" style="edgeStyle=none;rounded=0;orthogonalLoop=1;jettySize=auto;html=1;exitX=0.75;exitY=0;exitDx=0;exitDy=0;entryX=0.321;entryY=0.946;entryDx=0;entryDy=0;entryPerimeter=0;" parent="1" source="ZKtk_AyoDZIeiduYIY-5-58" target="ZKtk_AyoDZIeiduYIY-5-65" edge="1">
          <mxGeometry relative="1" as="geometry" />
        </mxCell>
        <mxCell id="ZKtk_AyoDZIeiduYIY-5-72" style="edgeStyle=none;rounded=0;orthogonalLoop=1;jettySize=auto;html=1;exitX=1;exitY=0.25;exitDx=0;exitDy=0;entryX=0.155;entryY=0.696;entryDx=0;entryDy=0;entryPerimeter=0;" parent="1" source="ZKtk_AyoDZIeiduYIY-5-58" target="ZKtk_AyoDZIeiduYIY-5-66" edge="1">
          <mxGeometry relative="1" as="geometry" />
        </mxCell>
        <mxCell id="ZKtk_AyoDZIeiduYIY-5-74" style="edgeStyle=none;rounded=0;orthogonalLoop=1;jettySize=auto;html=1;exitX=0.5;exitY=1;exitDx=0;exitDy=0;entryX=0.714;entryY=-0.075;entryDx=0;entryDy=0;entryPerimeter=0;" parent="1" source="ZKtk_AyoDZIeiduYIY-5-58" target="ZKtk_AyoDZIeiduYIY-5-69" edge="1">
          <mxGeometry relative="1" as="geometry" />
        </mxCell>
        <mxCell id="ZKtk_AyoDZIeiduYIY-5-76" style="edgeStyle=none;rounded=0;orthogonalLoop=1;jettySize=auto;html=1;exitX=0;exitY=0.5;exitDx=0;exitDy=0;entryX=1.024;entryY=0.654;entryDx=0;entryDy=0;entryPerimeter=0;" parent="1" source="ZKtk_AyoDZIeiduYIY-5-58" target="ZKtk_AyoDZIeiduYIY-5-63" edge="1">
          <mxGeometry relative="1" as="geometry" />
        </mxCell>
        <mxCell id="ZKtk_AyoDZIeiduYIY-5-78" value="评论" style="shape=rhombus;double=1;perimeter=rhombusPerimeter;whiteSpace=wrap;html=1;align=center;" parent="1" vertex="1">
          <mxGeometry x="-130" y="80" width="120" height="60" as="geometry" />
        </mxCell>
        <mxCell id="ZKtk_AyoDZIeiduYIY-5-80" value="" style="endArrow=none;html=1;rounded=0;exitX=1;exitY=0.5;exitDx=0;exitDy=0;entryX=0;entryY=0.25;entryDx=0;entryDy=0;strokeColor=#30F036;" parent="1" source="ZKtk_AyoDZIeiduYIY-5-78" target="ZLtcyuYyuE42bDOaXPlK-46" edge="1">
          <mxGeometry relative="1" as="geometry">
            <mxPoint x="90" y="20" as="sourcePoint" />
            <mxPoint x="250" y="20" as="targetPoint" />
          </mxGeometry>
        </mxCell>
        <mxCell id="ZKtk_AyoDZIeiduYIY-5-82" value="" style="endArrow=none;html=1;rounded=0;exitX=1;exitY=0.75;exitDx=0;exitDy=0;entryX=0;entryY=0.5;entryDx=0;entryDy=0;strokeColor=#30F036;" parent="1" source="ZKtk_AyoDZIeiduYIY-5-58" target="ZKtk_AyoDZIeiduYIY-5-78" edge="1">
          <mxGeometry relative="1" as="geometry">
            <mxPoint x="-170" y="10" as="sourcePoint" />
            <mxPoint x="-10" y="10" as="targetPoint" />
          </mxGeometry>
        </mxCell>
        <mxCell id="ZKtk_AyoDZIeiduYIY-5-83" value="1" style="text;html=1;align=center;verticalAlign=middle;resizable=0;points=[];autosize=1;strokeColor=none;fillColor=none;" parent="1" vertex="1">
          <mxGeometry x="-15" y="128" width="30" height="30" as="geometry" />
        </mxCell>
        <mxCell id="ZKtk_AyoDZIeiduYIY-5-84" value="N" style="text;html=1;align=center;verticalAlign=middle;resizable=0;points=[];autosize=1;strokeColor=none;fillColor=none;" parent="1" vertex="1">
          <mxGeometry x="-105" y="28" width="30" height="30" as="geometry" />
        </mxCell>
        <mxCell id="ZKtk_AyoDZIeiduYIY-5-85" value="M" style="text;html=1;align=center;verticalAlign=middle;resizable=0;points=[];autosize=1;strokeColor=none;fillColor=none;" parent="1" vertex="1">
          <mxGeometry x="95" y="-42" width="30" height="30" as="geometry" />
        </mxCell>
        <mxCell id="ZKtk_AyoDZIeiduYIY-5-86" value="N" style="text;html=1;align=center;verticalAlign=middle;resizable=0;points=[];autosize=1;strokeColor=none;fillColor=none;" parent="1" vertex="1">
          <mxGeometry x="95" y="-152" width="30" height="30" as="geometry" />
        </mxCell>
        <mxCell id="ZKtk_AyoDZIeiduYIY-5-88" style="rounded=0;orthogonalLoop=1;jettySize=auto;html=1;exitX=0;exitY=0.25;exitDx=0;exitDy=0;entryX=1;entryY=0.5;entryDx=0;entryDy=0;" parent="1" source="ZKtk_AyoDZIeiduYIY-5-94" target="ZKtk_AyoDZIeiduYIY-5-96" edge="1">
          <mxGeometry relative="1" as="geometry" />
        </mxCell>
        <mxCell id="ZKtk_AyoDZIeiduYIY-5-89" style="rounded=0;orthogonalLoop=1;jettySize=auto;html=1;exitX=0;exitY=0.5;exitDx=0;exitDy=0;entryX=1;entryY=0.5;entryDx=0;entryDy=0;" parent="1" source="ZKtk_AyoDZIeiduYIY-5-94" target="ZKtk_AyoDZIeiduYIY-5-99" edge="1">
          <mxGeometry relative="1" as="geometry" />
        </mxCell>
        <mxCell id="ZKtk_AyoDZIeiduYIY-5-90" style="rounded=0;orthogonalLoop=1;jettySize=auto;html=1;exitX=0;exitY=1;exitDx=0;exitDy=0;entryX=0.5;entryY=0;entryDx=0;entryDy=0;" parent="1" source="ZKtk_AyoDZIeiduYIY-5-94" target="ZKtk_AyoDZIeiduYIY-5-100" edge="1">
          <mxGeometry relative="1" as="geometry" />
        </mxCell>
        <mxCell id="ZKtk_AyoDZIeiduYIY-5-91" style="rounded=0;orthogonalLoop=1;jettySize=auto;html=1;exitX=0.5;exitY=1;exitDx=0;exitDy=0;entryX=0.5;entryY=0;entryDx=0;entryDy=0;" parent="1" source="ZKtk_AyoDZIeiduYIY-5-94" target="ZKtk_AyoDZIeiduYIY-5-101" edge="1">
          <mxGeometry relative="1" as="geometry" />
        </mxCell>
        <mxCell id="ZKtk_AyoDZIeiduYIY-5-92" style="rounded=0;orthogonalLoop=1;jettySize=auto;html=1;exitX=1;exitY=1;exitDx=0;exitDy=0;entryX=0;entryY=0;entryDx=0;entryDy=0;" parent="1" source="ZKtk_AyoDZIeiduYIY-5-94" target="ZKtk_AyoDZIeiduYIY-5-103" edge="1">
          <mxGeometry relative="1" as="geometry" />
        </mxCell>
        <mxCell id="ZKtk_AyoDZIeiduYIY-5-105" style="edgeStyle=none;rounded=0;orthogonalLoop=1;jettySize=auto;html=1;exitX=0.75;exitY=0;exitDx=0;exitDy=0;entryX=0.5;entryY=1;entryDx=0;entryDy=0;" parent="1" source="ZKtk_AyoDZIeiduYIY-5-94" target="ZKtk_AyoDZIeiduYIY-5-98" edge="1">
          <mxGeometry relative="1" as="geometry" />
        </mxCell>
        <mxCell id="ZKtk_AyoDZIeiduYIY-5-107" style="edgeStyle=none;rounded=0;orthogonalLoop=1;jettySize=auto;html=1;exitX=0.75;exitY=0;exitDx=0;exitDy=0;" parent="1" source="ZKtk_AyoDZIeiduYIY-5-94" target="ZKtk_AyoDZIeiduYIY-5-106" edge="1">
          <mxGeometry relative="1" as="geometry" />
        </mxCell>
        <mxCell id="ZKtk_AyoDZIeiduYIY-5-94" value="tag" style="rounded=1;arcSize=10;whiteSpace=wrap;html=1;align=center;" parent="1" vertex="1">
          <mxGeometry x="940" y="605" width="100" height="40" as="geometry" />
        </mxCell>
        <mxCell id="ZKtk_AyoDZIeiduYIY-5-95" value="&lt;span style=&quot;color: rgba(0, 0, 0, 0); font-family: monospace; font-size: 0px; text-align: start;&quot;&gt;%3CmxGraphModel%3E%3Croot%3E%3CmxCell%20id%3D%220%22%2F%3E%3CmxCell%20id%3D%221%22%20parent%3D%220%22%2F%3E%3CmxCell%20id%3D%222%22%20value%3D%22uid%22%20style%3D%22ellipse%3BwhiteSpace%3Dwrap%3Bhtml%3D1%3Balign%3Dcenter%3BfontStyle%3D4%3B%22%20vertex%3D%221%22%20parent%3D%221%22%3E%3CmxGeometry%20x%3D%22140%22%20y%3D%2250%22%20width%3D%2270%22%20height%3D%2240%22%20as%3D%22geometry%22%2F%3E%3C%2FmxCell%3E%3C%2Froot%3E%3C%2FmxGraphModel%3E&lt;/span&gt;" style="text;html=1;align=center;verticalAlign=middle;resizable=0;points=[];autosize=1;strokeColor=none;fillColor=none;" parent="1" vertex="1">
          <mxGeometry x="920" y="523" width="20" height="30" as="geometry" />
        </mxCell>
        <mxCell id="ZKtk_AyoDZIeiduYIY-5-96" value="uid" style="ellipse;whiteSpace=wrap;html=1;align=center;fontStyle=4;" parent="1" vertex="1">
          <mxGeometry x="840" y="563" width="70" height="42" as="geometry" />
        </mxCell>
        <mxCell id="ZKtk_AyoDZIeiduYIY-5-97" value="tag_name" style="ellipse;whiteSpace=wrap;html=1;align=center;" parent="1" vertex="1">
          <mxGeometry x="880" y="517" width="70" height="42" as="geometry" />
        </mxCell>
        <mxCell id="ZKtk_AyoDZIeiduYIY-5-98" value="sort" style="ellipse;whiteSpace=wrap;html=1;align=center;" parent="1" vertex="1">
          <mxGeometry x="935" y="488" width="70" height="42" as="geometry" />
        </mxCell>
        <mxCell id="ZKtk_AyoDZIeiduYIY-5-99" value="description" style="ellipse;whiteSpace=wrap;html=1;align=center;" parent="1" vertex="1">
          <mxGeometry x="820" y="625" width="70" height="42" as="geometry" />
        </mxCell>
        <mxCell id="ZKtk_AyoDZIeiduYIY-5-100" value="status" style="ellipse;whiteSpace=wrap;html=1;align=center;" parent="1" vertex="1">
          <mxGeometry x="870" y="675" width="70" height="42" as="geometry" />
        </mxCell>
        <mxCell id="ZKtk_AyoDZIeiduYIY-5-101" value="create_time" style="ellipse;whiteSpace=wrap;html=1;align=center;" parent="1" vertex="1">
          <mxGeometry x="950" y="693" width="70" height="40" as="geometry" />
        </mxCell>
        <mxCell id="ZKtk_AyoDZIeiduYIY-5-103" value="update_time" style="ellipse;whiteSpace=wrap;html=1;align=center;" parent="1" vertex="1">
          <mxGeometry x="1030" y="693" width="70" height="40" as="geometry" />
        </mxCell>
        <mxCell id="ZKtk_AyoDZIeiduYIY-5-104" style="rounded=0;orthogonalLoop=1;jettySize=auto;html=1;exitX=0.5;exitY=0;exitDx=0;exitDy=0;entryX=0.573;entryY=1.044;entryDx=0;entryDy=0;entryPerimeter=0;" parent="1" source="ZKtk_AyoDZIeiduYIY-5-94" target="ZKtk_AyoDZIeiduYIY-5-97" edge="1">
          <mxGeometry relative="1" as="geometry" />
        </mxCell>
        <mxCell id="ZKtk_AyoDZIeiduYIY-5-106" value="clicks" style="ellipse;whiteSpace=wrap;html=1;align=center;" parent="1" vertex="1">
          <mxGeometry x="1010" y="488" width="70" height="42" as="geometry" />
        </mxCell>
        <mxCell id="ZKtk_AyoDZIeiduYIY-5-108" value="做标签" style="shape=rhombus;perimeter=rhombusPerimeter;whiteSpace=wrap;html=1;align=center;" parent="1" vertex="1">
          <mxGeometry x="700" y="425" width="120" height="60" as="geometry" />
        </mxCell>
        <mxCell id="ZKtk_AyoDZIeiduYIY-5-109" value="" style="endArrow=none;html=1;rounded=0;entryX=0.343;entryY=1.052;entryDx=0;entryDy=0;entryPerimeter=0;strokeColor=#21FF72;exitX=0.92;exitY=0.412;exitDx=0;exitDy=0;exitPerimeter=0;" parent="1" source="ZKtk_AyoDZIeiduYIY-5-108" target="ZLtcyuYyuE42bDOaXPlK-46" edge="1">
          <mxGeometry relative="1" as="geometry">
            <mxPoint x="66" y="388" as="sourcePoint" />
            <mxPoint x="260" y="400" as="targetPoint" />
          </mxGeometry>
        </mxCell>
        <mxCell id="ZKtk_AyoDZIeiduYIY-5-110" value="" style="endArrow=none;html=1;rounded=0;exitX=1;exitY=0.5;exitDx=0;exitDy=0;entryX=0;entryY=0.5;entryDx=0;entryDy=0;strokeColor=#21FF72;" parent="1" source="ZKtk_AyoDZIeiduYIY-5-94" target="ZKtk_AyoDZIeiduYIY-5-108" edge="1">
          <mxGeometry relative="1" as="geometry">
            <mxPoint x="1110" y="523" as="sourcePoint" />
            <mxPoint x="1270" y="523" as="targetPoint" />
          </mxGeometry>
        </mxCell>
        <mxCell id="ZKtk_AyoDZIeiduYIY-5-111" value="M" style="text;html=1;align=center;verticalAlign=middle;resizable=0;points=[];autosize=1;strokeColor=none;fillColor=none;" parent="1" vertex="1">
          <mxGeometry x="1195" y="601" width="30" height="30" as="geometry" />
        </mxCell>
        <mxCell id="ZKtk_AyoDZIeiduYIY-5-112" value="N" style="text;html=1;align=center;verticalAlign=middle;resizable=0;points=[];autosize=1;strokeColor=none;fillColor=none;" parent="1" vertex="1">
          <mxGeometry x="730" y="358" width="30" height="30" as="geometry" />
        </mxCell>
        <mxCell id="ZKtk_AyoDZIeiduYIY-5-113" value="user_uid" style="ellipse;whiteSpace=wrap;html=1;align=center;" parent="1" vertex="1">
          <mxGeometry x="205" y="-354" width="70" height="42" as="geometry" />
        </mxCell>
        <mxCell id="ZKtk_AyoDZIeiduYIY-5-116" value="" style="edgeStyle=orthogonalEdgeStyle;rounded=0;orthogonalLoop=1;jettySize=auto;html=1;exitX=1;exitY=0;exitDx=0;exitDy=0;" parent="1" source="ZLtcyuYyuE42bDOaXPlK-85" target="ZLtcyuYyuE42bDOaXPlK-90" edge="1">
          <mxGeometry relative="1" as="geometry">
            <mxPoint x="391.48275862068976" y="240" as="targetPoint" />
            <mxPoint x="411" y="275" as="sourcePoint" />
          </mxGeometry>
        </mxCell>
        <mxCell id="ZLtcyuYyuE42bDOaXPlK-90" value="is_original&lt;span style=&quot;color: rgba(0, 0, 0, 0); font-family: monospace; font-size: 0px; text-align: start; text-wrap-mode: nowrap;&quot;&gt;%3CmxGraphModel%3E%3Croot%3E%3CmxCell%20id%3D%220%22%2F%3E%3CmxCell%20id%3D%221%22%20parent%3D%220%22%2F%3E%3CmxCell%20id%3D%222%22%20value%3D%22favorites%22%20style%3D%22ellipse%3BwhiteSpace%3Dwrap%3Bhtml%3D1%3Balign%3Dcenter%3B%22%20vertex%3D%221%22%20parent%3D%221%22%3E%3CmxGeometry%20y%3D%22260%22%20width%3D%2260%22%20height%3D%2230%22%20as%3D%22geometry%22%2F%3E%3C%2FmxCell%3E%3C%2Froot%3E%3C%2FmxGraphModel%3E&lt;/span&gt;" style="ellipse;whiteSpace=wrap;html=1;align=center;" parent="1" vertex="1">
          <mxGeometry x="380" y="230" width="60" height="30" as="geometry" />
        </mxCell>
        <mxCell id="ZKtk_AyoDZIeiduYIY-5-117" value="status" style="ellipse;whiteSpace=wrap;html=1;align=center;" parent="1" vertex="1">
          <mxGeometry x="380" y="190" width="60" height="30" as="geometry" />
        </mxCell>
        <mxCell id="ZgOY41el3eEX8JmF6i3w-1" value="comments_allowed" style="ellipse;whiteSpace=wrap;html=1;align=center;" parent="1" vertex="1">
          <mxGeometry x="380" y="100" width="60" height="30" as="geometry" />
        </mxCell>
        <mxCell id="ZgOY41el3eEX8JmF6i3w-2" style="rounded=0;orthogonalLoop=1;jettySize=auto;html=1;exitX=1;exitY=0.25;exitDx=0;exitDy=0;entryX=-0.002;entryY=0.781;entryDx=0;entryDy=0;entryPerimeter=0;" parent="1" source="ZLtcyuYyuE42bDOaXPlK-46" target="ZgOY41el3eEX8JmF6i3w-1" edge="1">
          <mxGeometry relative="1" as="geometry" />
        </mxCell>
        <mxCell id="WcBlXuips53iL-ILThBr-19" style="edgeStyle=none;rounded=0;orthogonalLoop=1;jettySize=auto;html=1;exitX=0;exitY=0;exitDx=0;exitDy=0;entryX=1;entryY=0.5;entryDx=0;entryDy=0;" edge="1" parent="1" source="WcBlXuips53iL-ILThBr-1" target="WcBlXuips53iL-ILThBr-5">
          <mxGeometry relative="1" as="geometry" />
        </mxCell>
        <mxCell id="WcBlXuips53iL-ILThBr-20" style="edgeStyle=none;rounded=0;orthogonalLoop=1;jettySize=auto;html=1;exitX=0.75;exitY=0;exitDx=0;exitDy=0;entryX=0;entryY=1;entryDx=0;entryDy=0;" edge="1" parent="1" source="WcBlXuips53iL-ILThBr-1" target="WcBlXuips53iL-ILThBr-4">
          <mxGeometry relative="1" as="geometry" />
        </mxCell>
        <mxCell id="WcBlXuips53iL-ILThBr-23" style="edgeStyle=none;rounded=0;orthogonalLoop=1;jettySize=auto;html=1;exitX=1;exitY=0.5;exitDx=0;exitDy=0;entryX=0;entryY=0.5;entryDx=0;entryDy=0;" edge="1" parent="1" source="WcBlXuips53iL-ILThBr-1" target="WcBlXuips53iL-ILThBr-6">
          <mxGeometry relative="1" as="geometry" />
        </mxCell>
        <mxCell id="WcBlXuips53iL-ILThBr-25" style="edgeStyle=none;rounded=0;orthogonalLoop=1;jettySize=auto;html=1;exitX=0.75;exitY=1;exitDx=0;exitDy=0;entryX=0.5;entryY=0;entryDx=0;entryDy=0;" edge="1" parent="1" source="WcBlXuips53iL-ILThBr-1" target="WcBlXuips53iL-ILThBr-7">
          <mxGeometry relative="1" as="geometry" />
        </mxCell>
        <mxCell id="WcBlXuips53iL-ILThBr-1" value="file" style="whiteSpace=wrap;html=1;align=center;" vertex="1" parent="1">
          <mxGeometry x="370" y="670" width="100" height="40" as="geometry" />
        </mxCell>
        <mxCell id="WcBlXuips53iL-ILThBr-2" value="file_name" style="ellipse;whiteSpace=wrap;html=1;align=center;" vertex="1" parent="1">
          <mxGeometry x="525" y="610" width="70" height="40" as="geometry" />
        </mxCell>
        <mxCell id="WcBlXuips53iL-ILThBr-3" value="uid" style="ellipse;whiteSpace=wrap;html=1;align=center;fontStyle=4;" vertex="1" parent="1">
          <mxGeometry x="395" y="540" width="70" height="40" as="geometry" />
        </mxCell>
        <mxCell id="WcBlXuips53iL-ILThBr-4" value="original_name" style="ellipse;whiteSpace=wrap;html=1;align=center;" vertex="1" parent="1">
          <mxGeometry x="465" y="560" width="85" height="40" as="geometry" />
        </mxCell>
        <mxCell id="WcBlXuips53iL-ILThBr-5" value="admin_uid" style="ellipse;whiteSpace=wrap;html=1;align=center;" vertex="1" parent="1">
          <mxGeometry x="250" y="610" width="70" height="40" as="geometry" />
        </mxCell>
        <mxCell id="WcBlXuips53iL-ILThBr-6" value="file_url" style="ellipse;whiteSpace=wrap;html=1;align=center;" vertex="1" parent="1">
          <mxGeometry x="540" y="670" width="70" height="40" as="geometry" />
        </mxCell>
        <mxCell id="WcBlXuips53iL-ILThBr-7" value="file_type" style="ellipse;whiteSpace=wrap;html=1;align=center;" vertex="1" parent="1">
          <mxGeometry x="440" y="780" width="70" height="40" as="geometry" />
        </mxCell>
        <mxCell id="WcBlXuips53iL-ILThBr-8" value="user_uid" style="ellipse;whiteSpace=wrap;html=1;align=center;" vertex="1" parent="1">
          <mxGeometry x="310" y="550" width="70" height="40" as="geometry" />
        </mxCell>
        <mxCell id="WcBlXuips53iL-ILThBr-10" value="status" style="ellipse;whiteSpace=wrap;html=1;align=center;" vertex="1" parent="1">
          <mxGeometry x="355" y="780" width="70" height="40" as="geometry" />
        </mxCell>
        <mxCell id="WcBlXuips53iL-ILThBr-11" value="update_time" style="ellipse;whiteSpace=wrap;html=1;align=center;" vertex="1" parent="1">
          <mxGeometry x="260" y="760" width="70" height="40" as="geometry" />
        </mxCell>
        <mxCell id="WcBlXuips53iL-ILThBr-12" value="create_time" style="ellipse;whiteSpace=wrap;html=1;align=center;" vertex="1" parent="1">
          <mxGeometry x="230" y="660" width="70" height="40" as="geometry" />
        </mxCell>
        <mxCell id="WcBlXuips53iL-ILThBr-16" value="file_size" style="ellipse;whiteSpace=wrap;html=1;align=center;" vertex="1" parent="1">
          <mxGeometry x="510" y="730" width="70" height="40" as="geometry" />
        </mxCell>
        <mxCell id="WcBlXuips53iL-ILThBr-17" style="edgeStyle=none;rounded=0;orthogonalLoop=1;jettySize=auto;html=1;exitX=0.5;exitY=0;exitDx=0;exitDy=0;entryX=0.495;entryY=1.131;entryDx=0;entryDy=0;entryPerimeter=0;" edge="1" parent="1" source="WcBlXuips53iL-ILThBr-1" target="WcBlXuips53iL-ILThBr-3">
          <mxGeometry relative="1" as="geometry" />
        </mxCell>
        <mxCell id="WcBlXuips53iL-ILThBr-18" style="edgeStyle=none;rounded=0;orthogonalLoop=1;jettySize=auto;html=1;exitX=0.25;exitY=0;exitDx=0;exitDy=0;entryX=0.733;entryY=0.984;entryDx=0;entryDy=0;entryPerimeter=0;" edge="1" parent="1" source="WcBlXuips53iL-ILThBr-1" target="WcBlXuips53iL-ILThBr-8">
          <mxGeometry relative="1" as="geometry" />
        </mxCell>
        <mxCell id="WcBlXuips53iL-ILThBr-21" style="edgeStyle=none;rounded=0;orthogonalLoop=1;jettySize=auto;html=1;exitX=1;exitY=0;exitDx=0;exitDy=0;entryX=0.071;entryY=0.75;entryDx=0;entryDy=0;entryPerimeter=0;" edge="1" parent="1" source="WcBlXuips53iL-ILThBr-1" target="WcBlXuips53iL-ILThBr-2">
          <mxGeometry relative="1" as="geometry" />
        </mxCell>
        <mxCell id="WcBlXuips53iL-ILThBr-24" style="edgeStyle=none;rounded=0;orthogonalLoop=1;jettySize=auto;html=1;exitX=1;exitY=0.75;exitDx=0;exitDy=0;entryX=0.093;entryY=0.312;entryDx=0;entryDy=0;entryPerimeter=0;" edge="1" parent="1" source="WcBlXuips53iL-ILThBr-1" target="WcBlXuips53iL-ILThBr-16">
          <mxGeometry relative="1" as="geometry" />
        </mxCell>
        <mxCell id="WcBlXuips53iL-ILThBr-26" style="edgeStyle=none;rounded=0;orthogonalLoop=1;jettySize=auto;html=1;exitX=0.5;exitY=1;exitDx=0;exitDy=0;entryX=0.711;entryY=0.028;entryDx=0;entryDy=0;entryPerimeter=0;" edge="1" parent="1" source="WcBlXuips53iL-ILThBr-1" target="WcBlXuips53iL-ILThBr-10">
          <mxGeometry relative="1" as="geometry" />
        </mxCell>
        <mxCell id="WcBlXuips53iL-ILThBr-27" style="edgeStyle=none;rounded=0;orthogonalLoop=1;jettySize=auto;html=1;exitX=0.25;exitY=1;exitDx=0;exitDy=0;entryX=0.965;entryY=0.234;entryDx=0;entryDy=0;entryPerimeter=0;" edge="1" parent="1" source="WcBlXuips53iL-ILThBr-1" target="WcBlXuips53iL-ILThBr-11">
          <mxGeometry relative="1" as="geometry" />
        </mxCell>
        <mxCell id="WcBlXuips53iL-ILThBr-28" style="edgeStyle=none;rounded=0;orthogonalLoop=1;jettySize=auto;html=1;exitX=0;exitY=0.5;exitDx=0;exitDy=0;entryX=0.931;entryY=0.683;entryDx=0;entryDy=0;entryPerimeter=0;" edge="1" parent="1" source="WcBlXuips53iL-ILThBr-1" target="WcBlXuips53iL-ILThBr-12">
          <mxGeometry relative="1" as="geometry" />
        </mxCell>
        <mxCell id="WcBlXuips53iL-ILThBr-29" value="parentUid" style="ellipse;whiteSpace=wrap;html=1;align=center;" vertex="1" parent="1">
          <mxGeometry x="1080" y="518" width="70" height="42" as="geometry" />
        </mxCell>
        <mxCell id="WcBlXuips53iL-ILThBr-30" style="edgeStyle=none;rounded=0;orthogonalLoop=1;jettySize=auto;html=1;exitX=1;exitY=0;exitDx=0;exitDy=0;entryX=0.349;entryY=0.966;entryDx=0;entryDy=0;entryPerimeter=0;" edge="1" parent="1" source="ZKtk_AyoDZIeiduYIY-5-94" target="WcBlXuips53iL-ILThBr-29">
          <mxGeometry relative="1" as="geometry" />
        </mxCell>
        <mxCell id="WcBlXuips53iL-ILThBr-31" value="关联文件" style="shape=rhombus;perimeter=rhombusPerimeter;whiteSpace=wrap;html=1;align=center;" vertex="1" parent="1">
          <mxGeometry x="390" y="412" width="120" height="60" as="geometry" />
        </mxCell>
        <mxCell id="WcBlXuips53iL-ILThBr-34" value="" style="endArrow=none;html=1;rounded=0;exitX=0.944;exitY=1.113;exitDx=0;exitDy=0;exitPerimeter=0;strokeColor=#30F036;" edge="1" parent="1" source="ZLtcyuYyuE42bDOaXPlK-46">
          <mxGeometry relative="1" as="geometry">
            <mxPoint x="320" y="300" as="sourcePoint" />
            <mxPoint x="450" y="410" as="targetPoint" />
          </mxGeometry>
        </mxCell>
        <mxCell id="WcBlXuips53iL-ILThBr-36" value="" style="endArrow=none;html=1;rounded=0;strokeColor=#21FF72;" edge="1" parent="1">
          <mxGeometry relative="1" as="geometry">
            <mxPoint x="450" y="470" as="sourcePoint" />
            <mxPoint x="430" y="670" as="targetPoint" />
          </mxGeometry>
        </mxCell>
        <mxCell id="WcBlXuips53iL-ILThBr-49" style="edgeStyle=none;rounded=0;orthogonalLoop=1;jettySize=auto;html=1;exitX=0.75;exitY=0;exitDx=0;exitDy=0;entryX=0.5;entryY=1;entryDx=0;entryDy=0;" edge="1" parent="1" source="WcBlXuips53iL-ILThBr-37" target="WcBlXuips53iL-ILThBr-38">
          <mxGeometry relative="1" as="geometry" />
        </mxCell>
        <mxCell id="WcBlXuips53iL-ILThBr-52" style="edgeStyle=none;rounded=0;orthogonalLoop=1;jettySize=auto;html=1;exitX=0;exitY=0.5;exitDx=0;exitDy=0;entryX=1;entryY=0.5;entryDx=0;entryDy=0;" edge="1" parent="1" source="WcBlXuips53iL-ILThBr-37" target="WcBlXuips53iL-ILThBr-45">
          <mxGeometry relative="1" as="geometry" />
        </mxCell>
        <mxCell id="WcBlXuips53iL-ILThBr-37" value="user" style="rounded=1;arcSize=10;whiteSpace=wrap;html=1;align=center;" vertex="1" parent="1">
          <mxGeometry x="-1050" y="110" width="100" height="40" as="geometry" />
        </mxCell>
        <mxCell id="WcBlXuips53iL-ILThBr-38" value="username" style="ellipse;whiteSpace=wrap;html=1;align=center;" vertex="1" parent="1">
          <mxGeometry x="-990" y="10" width="70" height="40" as="geometry" />
        </mxCell>
        <mxCell id="WcBlXuips53iL-ILThBr-39" value="uid" style="ellipse;whiteSpace=wrap;html=1;align=center;fontStyle=4;" vertex="1" parent="1">
          <mxGeometry x="-1050" y="-10" width="70" height="40" as="geometry" />
        </mxCell>
        <mxCell id="WcBlXuips53iL-ILThBr-40" value="password" style="ellipse;whiteSpace=wrap;html=1;align=center;" vertex="1" parent="1">
          <mxGeometry x="-920" y="48" width="70" height="40" as="geometry" />
        </mxCell>
        <mxCell id="WcBlXuips53iL-ILThBr-41" value="email" style="ellipse;whiteSpace=wrap;html=1;align=center;" vertex="1" parent="1">
          <mxGeometry x="-920" y="150" width="70" height="40" as="geometry" />
        </mxCell>
        <mxCell id="WcBlXuips53iL-ILThBr-42" value="type" style="ellipse;whiteSpace=wrap;html=1;align=center;" vertex="1" parent="1">
          <mxGeometry x="-1070" y="210" width="70" height="40" as="geometry" />
        </mxCell>
        <mxCell id="WcBlXuips53iL-ILThBr-43" value="phone" style="ellipse;whiteSpace=wrap;html=1;align=center;" vertex="1" parent="1">
          <mxGeometry x="-980" y="203" width="70" height="40" as="geometry" />
        </mxCell>
        <mxCell id="WcBlXuips53iL-ILThBr-44" value="remarks" style="ellipse;whiteSpace=wrap;html=1;align=center;" vertex="1" parent="1">
          <mxGeometry x="-1150" y="170" width="70" height="40" as="geometry" />
        </mxCell>
        <mxCell id="WcBlXuips53iL-ILThBr-45" value="status" style="ellipse;whiteSpace=wrap;html=1;align=center;" vertex="1" parent="1">
          <mxGeometry x="-1180" y="110" width="70" height="40" as="geometry" />
        </mxCell>
        <mxCell id="WcBlXuips53iL-ILThBr-46" value="create_time" style="ellipse;whiteSpace=wrap;html=1;align=center;" vertex="1" parent="1">
          <mxGeometry x="-1160" y="50" width="70" height="40" as="geometry" />
        </mxCell>
        <mxCell id="WcBlXuips53iL-ILThBr-47" style="edgeStyle=none;rounded=0;orthogonalLoop=1;jettySize=auto;html=1;exitX=1;exitY=1;exitDx=0;exitDy=0;entryX=0.006;entryY=0.367;entryDx=0;entryDy=0;entryPerimeter=0;" edge="1" parent="1" source="WcBlXuips53iL-ILThBr-37" target="WcBlXuips53iL-ILThBr-41">
          <mxGeometry relative="1" as="geometry" />
        </mxCell>
        <mxCell id="WcBlXuips53iL-ILThBr-48" style="edgeStyle=none;rounded=0;orthogonalLoop=1;jettySize=auto;html=1;exitX=1;exitY=0;exitDx=0;exitDy=0;entryX=0.279;entryY=0.917;entryDx=0;entryDy=0;entryPerimeter=0;" edge="1" parent="1" source="WcBlXuips53iL-ILThBr-37" target="WcBlXuips53iL-ILThBr-40">
          <mxGeometry relative="1" as="geometry" />
        </mxCell>
        <mxCell id="WcBlXuips53iL-ILThBr-50" style="edgeStyle=none;rounded=0;orthogonalLoop=1;jettySize=auto;html=1;exitX=0.25;exitY=0;exitDx=0;exitDy=0;entryX=0.701;entryY=0.998;entryDx=0;entryDy=0;entryPerimeter=0;" edge="1" parent="1" source="WcBlXuips53iL-ILThBr-37" target="WcBlXuips53iL-ILThBr-39">
          <mxGeometry relative="1" as="geometry" />
        </mxCell>
        <mxCell id="WcBlXuips53iL-ILThBr-51" style="edgeStyle=none;rounded=0;orthogonalLoop=1;jettySize=auto;html=1;exitX=0;exitY=0;exitDx=0;exitDy=0;entryX=0.95;entryY=0.759;entryDx=0;entryDy=0;entryPerimeter=0;" edge="1" parent="1" source="WcBlXuips53iL-ILThBr-37" target="WcBlXuips53iL-ILThBr-46">
          <mxGeometry relative="1" as="geometry" />
        </mxCell>
        <mxCell id="WcBlXuips53iL-ILThBr-53" style="edgeStyle=none;rounded=0;orthogonalLoop=1;jettySize=auto;html=1;exitX=0;exitY=1;exitDx=0;exitDy=0;entryX=0.956;entryY=0.237;entryDx=0;entryDy=0;entryPerimeter=0;" edge="1" parent="1" source="WcBlXuips53iL-ILThBr-37" target="WcBlXuips53iL-ILThBr-44">
          <mxGeometry relative="1" as="geometry" />
        </mxCell>
        <mxCell id="WcBlXuips53iL-ILThBr-54" style="edgeStyle=none;rounded=0;orthogonalLoop=1;jettySize=auto;html=1;exitX=0.25;exitY=1;exitDx=0;exitDy=0;entryX=0.596;entryY=0.085;entryDx=0;entryDy=0;entryPerimeter=0;" edge="1" parent="1" source="WcBlXuips53iL-ILThBr-37" target="WcBlXuips53iL-ILThBr-42">
          <mxGeometry relative="1" as="geometry" />
        </mxCell>
        <mxCell id="WcBlXuips53iL-ILThBr-55" style="edgeStyle=none;rounded=0;orthogonalLoop=1;jettySize=auto;html=1;exitX=0.75;exitY=1;exitDx=0;exitDy=0;entryX=0.391;entryY=0.042;entryDx=0;entryDy=0;entryPerimeter=0;" edge="1" parent="1" source="WcBlXuips53iL-ILThBr-37" target="WcBlXuips53iL-ILThBr-43">
          <mxGeometry relative="1" as="geometry" />
        </mxCell>
        <mxCell id="WcBlXuips53iL-ILThBr-65" style="edgeStyle=none;rounded=0;orthogonalLoop=1;jettySize=auto;html=1;exitX=0.5;exitY=0;exitDx=0;exitDy=0;entryX=0.5;entryY=1;entryDx=0;entryDy=0;" edge="1" parent="1" source="WcBlXuips53iL-ILThBr-56" target="WcBlXuips53iL-ILThBr-57">
          <mxGeometry relative="1" as="geometry" />
        </mxCell>
        <mxCell id="WcBlXuips53iL-ILThBr-69" style="edgeStyle=none;rounded=0;orthogonalLoop=1;jettySize=auto;html=1;exitX=0;exitY=1;exitDx=0;exitDy=0;entryX=1;entryY=0;entryDx=0;entryDy=0;" edge="1" parent="1" source="WcBlXuips53iL-ILThBr-56" target="WcBlXuips53iL-ILThBr-61">
          <mxGeometry relative="1" as="geometry" />
        </mxCell>
        <mxCell id="WcBlXuips53iL-ILThBr-56" value="role" style="whiteSpace=wrap;html=1;align=center;" vertex="1" parent="1">
          <mxGeometry x="-1120" y="-410" width="100" height="40" as="geometry" />
        </mxCell>
        <mxCell id="WcBlXuips53iL-ILThBr-57" value="uid" style="ellipse;whiteSpace=wrap;html=1;align=center;fontStyle=4;" vertex="1" parent="1">
          <mxGeometry x="-1120" y="-498" width="70" height="40" as="geometry" />
        </mxCell>
        <mxCell id="WcBlXuips53iL-ILThBr-58" value="role_name" style="ellipse;whiteSpace=wrap;html=1;align=center;" vertex="1" parent="1">
          <mxGeometry x="-1000" y="-458" width="70" height="40" as="geometry" />
        </mxCell>
        <mxCell id="WcBlXuips53iL-ILThBr-59" value="description" style="ellipse;whiteSpace=wrap;html=1;align=center;" vertex="1" parent="1">
          <mxGeometry x="-1000" y="-348" width="70" height="40" as="geometry" />
        </mxCell>
        <mxCell id="WcBlXuips53iL-ILThBr-60" value="status" style="ellipse;whiteSpace=wrap;html=1;align=center;" vertex="1" parent="1">
          <mxGeometry x="-1110" y="-330" width="70" height="40" as="geometry" />
        </mxCell>
        <mxCell id="WcBlXuips53iL-ILThBr-61" value="create_time" style="ellipse;whiteSpace=wrap;html=1;align=center;" vertex="1" parent="1">
          <mxGeometry x="-1220" y="-358" width="70" height="40" as="geometry" />
        </mxCell>
        <mxCell id="WcBlXuips53iL-ILThBr-62" value="update_time" style="ellipse;whiteSpace=wrap;html=1;align=center;" vertex="1" parent="1">
          <mxGeometry x="-1120" y="10" width="70" height="40" as="geometry" />
        </mxCell>
        <mxCell id="WcBlXuips53iL-ILThBr-63" style="edgeStyle=none;rounded=0;orthogonalLoop=1;jettySize=auto;html=1;exitX=0.25;exitY=0;exitDx=0;exitDy=0;entryX=0.739;entryY=0.998;entryDx=0;entryDy=0;entryPerimeter=0;" edge="1" parent="1" source="WcBlXuips53iL-ILThBr-37" target="WcBlXuips53iL-ILThBr-62">
          <mxGeometry relative="1" as="geometry" />
        </mxCell>
        <mxCell id="WcBlXuips53iL-ILThBr-64" value="update_time" style="ellipse;whiteSpace=wrap;html=1;align=center;" vertex="1" parent="1">
          <mxGeometry x="-1220" y="-442" width="70" height="40" as="geometry" />
        </mxCell>
        <mxCell id="WcBlXuips53iL-ILThBr-66" style="edgeStyle=none;rounded=0;orthogonalLoop=1;jettySize=auto;html=1;exitX=1;exitY=0.25;exitDx=0;exitDy=0;entryX=0.279;entryY=0.9;entryDx=0;entryDy=0;entryPerimeter=0;" edge="1" parent="1" source="WcBlXuips53iL-ILThBr-56" target="WcBlXuips53iL-ILThBr-58">
          <mxGeometry relative="1" as="geometry" />
        </mxCell>
        <mxCell id="WcBlXuips53iL-ILThBr-67" style="edgeStyle=none;rounded=0;orthogonalLoop=1;jettySize=auto;html=1;exitX=1;exitY=0.75;exitDx=0;exitDy=0;entryX=0.279;entryY=0.215;entryDx=0;entryDy=0;entryPerimeter=0;" edge="1" parent="1" source="WcBlXuips53iL-ILThBr-56" target="WcBlXuips53iL-ILThBr-59">
          <mxGeometry relative="1" as="geometry" />
        </mxCell>
        <mxCell id="WcBlXuips53iL-ILThBr-68" style="edgeStyle=none;rounded=0;orthogonalLoop=1;jettySize=auto;html=1;exitX=0.5;exitY=1;exitDx=0;exitDy=0;entryX=0.596;entryY=0.048;entryDx=0;entryDy=0;entryPerimeter=0;" edge="1" parent="1" source="WcBlXuips53iL-ILThBr-56" target="WcBlXuips53iL-ILThBr-60">
          <mxGeometry relative="1" as="geometry" />
        </mxCell>
        <mxCell id="WcBlXuips53iL-ILThBr-70" style="edgeStyle=none;rounded=0;orthogonalLoop=1;jettySize=auto;html=1;exitX=0;exitY=0.25;exitDx=0;exitDy=0;entryX=0.925;entryY=0.609;entryDx=0;entryDy=0;entryPerimeter=0;" edge="1" parent="1" source="WcBlXuips53iL-ILThBr-56" target="WcBlXuips53iL-ILThBr-64">
          <mxGeometry relative="1" as="geometry" />
        </mxCell>
        <mxCell id="WcBlXuips53iL-ILThBr-71" style="edgeStyle=none;rounded=0;orthogonalLoop=1;jettySize=auto;html=1;exitX=0.5;exitY=0;exitDx=0;exitDy=0;entryX=0.5;entryY=1;entryDx=0;entryDy=0;" edge="1" parent="1" source="WcBlXuips53iL-ILThBr-73" target="WcBlXuips53iL-ILThBr-74">
          <mxGeometry relative="1" as="geometry" />
        </mxCell>
        <mxCell id="WcBlXuips53iL-ILThBr-72" style="edgeStyle=none;rounded=0;orthogonalLoop=1;jettySize=auto;html=1;exitX=0;exitY=1;exitDx=0;exitDy=0;entryX=1;entryY=0;entryDx=0;entryDy=0;" edge="1" parent="1" source="WcBlXuips53iL-ILThBr-73" target="WcBlXuips53iL-ILThBr-78">
          <mxGeometry relative="1" as="geometry" />
        </mxCell>
        <mxCell id="WcBlXuips53iL-ILThBr-73" value="permission" style="whiteSpace=wrap;html=1;align=center;" vertex="1" parent="1">
          <mxGeometry x="-950" y="-772" width="100" height="40" as="geometry" />
        </mxCell>
        <mxCell id="WcBlXuips53iL-ILThBr-74" value="uid" style="ellipse;whiteSpace=wrap;html=1;align=center;fontStyle=4;" vertex="1" parent="1">
          <mxGeometry x="-950" y="-860" width="70" height="40" as="geometry" />
        </mxCell>
        <mxCell id="WcBlXuips53iL-ILThBr-75" value="permission_name" style="ellipse;whiteSpace=wrap;html=1;align=center;" vertex="1" parent="1">
          <mxGeometry x="-830" y="-820" width="70" height="40" as="geometry" />
        </mxCell>
        <mxCell id="WcBlXuips53iL-ILThBr-76" value="description" style="ellipse;whiteSpace=wrap;html=1;align=center;" vertex="1" parent="1">
          <mxGeometry x="-830" y="-710" width="70" height="40" as="geometry" />
        </mxCell>
        <mxCell id="WcBlXuips53iL-ILThBr-77" value="status" style="ellipse;whiteSpace=wrap;html=1;align=center;" vertex="1" parent="1">
          <mxGeometry x="-940" y="-692" width="70" height="40" as="geometry" />
        </mxCell>
        <mxCell id="WcBlXuips53iL-ILThBr-78" value="create_time" style="ellipse;whiteSpace=wrap;html=1;align=center;" vertex="1" parent="1">
          <mxGeometry x="-1050" y="-720" width="70" height="40" as="geometry" />
        </mxCell>
        <mxCell id="WcBlXuips53iL-ILThBr-79" value="update_time" style="ellipse;whiteSpace=wrap;html=1;align=center;" vertex="1" parent="1">
          <mxGeometry x="-1050" y="-804" width="70" height="40" as="geometry" />
        </mxCell>
        <mxCell id="WcBlXuips53iL-ILThBr-80" style="edgeStyle=none;rounded=0;orthogonalLoop=1;jettySize=auto;html=1;exitX=1;exitY=0.25;exitDx=0;exitDy=0;entryX=0.279;entryY=0.9;entryDx=0;entryDy=0;entryPerimeter=0;" edge="1" parent="1" source="WcBlXuips53iL-ILThBr-73" target="WcBlXuips53iL-ILThBr-75">
          <mxGeometry relative="1" as="geometry" />
        </mxCell>
        <mxCell id="WcBlXuips53iL-ILThBr-81" style="edgeStyle=none;rounded=0;orthogonalLoop=1;jettySize=auto;html=1;exitX=1;exitY=0.75;exitDx=0;exitDy=0;entryX=0.279;entryY=0.215;entryDx=0;entryDy=0;entryPerimeter=0;" edge="1" parent="1" source="WcBlXuips53iL-ILThBr-73" target="WcBlXuips53iL-ILThBr-76">
          <mxGeometry relative="1" as="geometry" />
        </mxCell>
        <mxCell id="WcBlXuips53iL-ILThBr-82" style="edgeStyle=none;rounded=0;orthogonalLoop=1;jettySize=auto;html=1;exitX=0.5;exitY=1;exitDx=0;exitDy=0;entryX=0.596;entryY=0.048;entryDx=0;entryDy=0;entryPerimeter=0;" edge="1" parent="1" source="WcBlXuips53iL-ILThBr-73" target="WcBlXuips53iL-ILThBr-77">
          <mxGeometry relative="1" as="geometry" />
        </mxCell>
        <mxCell id="WcBlXuips53iL-ILThBr-83" style="edgeStyle=none;rounded=0;orthogonalLoop=1;jettySize=auto;html=1;exitX=0;exitY=0.25;exitDx=0;exitDy=0;entryX=0.925;entryY=0.609;entryDx=0;entryDy=0;entryPerimeter=0;" edge="1" parent="1" source="WcBlXuips53iL-ILThBr-73" target="WcBlXuips53iL-ILThBr-79">
          <mxGeometry relative="1" as="geometry" />
        </mxCell>
        <mxCell id="WcBlXuips53iL-ILThBr-84" value="设置角色" style="shape=rhombus;perimeter=rhombusPerimeter;whiteSpace=wrap;html=1;align=center;" vertex="1" parent="1">
          <mxGeometry x="-1200" y="-167" width="120" height="60" as="geometry" />
        </mxCell>
        <mxCell id="WcBlXuips53iL-ILThBr-85" value="" style="endArrow=none;html=1;rounded=0;exitX=1;exitY=0.5;exitDx=0;exitDy=0;entryX=0;entryY=0.25;entryDx=0;entryDy=0;strokeColor=#30F036;" edge="1" parent="1" source="WcBlXuips53iL-ILThBr-84" target="WcBlXuips53iL-ILThBr-37">
          <mxGeometry relative="1" as="geometry">
            <mxPoint x="-1080" y="-110" as="sourcePoint" />
            <mxPoint x="-920" y="-110" as="targetPoint" />
          </mxGeometry>
        </mxCell>
        <mxCell id="WcBlXuips53iL-ILThBr-86" value="" style="endArrow=none;html=1;rounded=0;exitX=0.5;exitY=0;exitDx=0;exitDy=0;entryX=0.313;entryY=1.041;entryDx=0;entryDy=0;entryPerimeter=0;strokeColor=#21FF72;" edge="1" parent="1" source="WcBlXuips53iL-ILThBr-84" target="WcBlXuips53iL-ILThBr-56">
          <mxGeometry relative="1" as="geometry">
            <mxPoint x="-760" y="-290" as="sourcePoint" />
            <mxPoint x="-600" y="-290" as="targetPoint" />
            <Array as="points">
              <mxPoint x="-1110" y="-260" />
            </Array>
          </mxGeometry>
        </mxCell>
        <mxCell id="WcBlXuips53iL-ILThBr-87" value="1" style="text;html=1;align=center;verticalAlign=middle;resizable=0;points=[];autosize=1;strokeColor=none;fillColor=none;" vertex="1" parent="1">
          <mxGeometry x="-1085" y="-172" width="30" height="30" as="geometry" />
        </mxCell>
        <mxCell id="WcBlXuips53iL-ILThBr-88" value="1" style="text;html=1;align=center;verticalAlign=middle;resizable=0;points=[];autosize=1;strokeColor=none;fillColor=none;" vertex="1" parent="1">
          <mxGeometry x="-1155" y="-242" width="30" height="30" as="geometry" />
        </mxCell>
        <mxCell id="WcBlXuips53iL-ILThBr-89" value="拥有权限" style="shape=rhombus;perimeter=rhombusPerimeter;whiteSpace=wrap;html=1;align=center;" vertex="1" parent="1">
          <mxGeometry x="-915" y="-622" width="120" height="60" as="geometry" />
        </mxCell>
        <mxCell id="WcBlXuips53iL-ILThBr-90" value="" style="endArrow=none;html=1;rounded=0;exitX=0.75;exitY=0;exitDx=0;exitDy=0;entryX=0;entryY=0.5;entryDx=0;entryDy=0;strokeColor=#30F036;" edge="1" parent="1" source="WcBlXuips53iL-ILThBr-56" target="WcBlXuips53iL-ILThBr-89">
          <mxGeometry relative="1" as="geometry">
            <mxPoint x="-820" y="-430" as="sourcePoint" />
            <mxPoint x="-660" y="-430" as="targetPoint" />
          </mxGeometry>
        </mxCell>
        <mxCell id="WcBlXuips53iL-ILThBr-91" value="" style="endArrow=none;html=1;rounded=0;exitX=0.958;exitY=0.532;exitDx=0;exitDy=0;exitPerimeter=0;entryX=0;entryY=0.75;entryDx=0;entryDy=0;strokeColor=#21FF72;" edge="1" parent="1" source="WcBlXuips53iL-ILThBr-89" target="WcBlXuips53iL-ILThBr-73">
          <mxGeometry relative="1" as="geometry">
            <mxPoint x="-800" y="-440" as="sourcePoint" />
            <mxPoint x="-640" y="-440" as="targetPoint" />
          </mxGeometry>
        </mxCell>
        <mxCell id="WcBlXuips53iL-ILThBr-92" value="M" style="text;html=1;align=center;verticalAlign=middle;resizable=0;points=[];autosize=1;strokeColor=none;fillColor=none;" vertex="1" parent="1">
          <mxGeometry x="-945" y="-562" width="30" height="30" as="geometry" />
        </mxCell>
        <mxCell id="WcBlXuips53iL-ILThBr-93" value="N" style="text;html=1;align=center;verticalAlign=middle;resizable=0;points=[];autosize=1;strokeColor=none;fillColor=none;" vertex="1" parent="1">
          <mxGeometry x="-805" y="-582" width="30" height="30" as="geometry" />
        </mxCell>
        <mxCell id="WcBlXuips53iL-ILThBr-94" value="发表评论" style="shape=rhombus;perimeter=rhombusPerimeter;whiteSpace=wrap;html=1;align=center;" vertex="1" parent="1">
          <mxGeometry x="-700" width="120" height="60" as="geometry" />
        </mxCell>
        <mxCell id="WcBlXuips53iL-ILThBr-95" value="" style="endArrow=none;html=1;rounded=0;exitX=1;exitY=0.5;exitDx=0;exitDy=0;entryX=0;entryY=0.5;entryDx=0;entryDy=0;strokeColor=#30F036;" edge="1" parent="1" source="WcBlXuips53iL-ILThBr-37" target="WcBlXuips53iL-ILThBr-94">
          <mxGeometry relative="1" as="geometry">
            <mxPoint x="-810" y="-60" as="sourcePoint" />
            <mxPoint x="-650" y="-60" as="targetPoint" />
          </mxGeometry>
        </mxCell>
        <mxCell id="WcBlXuips53iL-ILThBr-96" value="" style="endArrow=none;html=1;rounded=0;exitX=1;exitY=0.5;exitDx=0;exitDy=0;entryX=0;entryY=0.5;entryDx=0;entryDy=0;strokeColor=#21FF72;" edge="1" parent="1" source="WcBlXuips53iL-ILThBr-94" target="ZKtk_AyoDZIeiduYIY-5-58">
          <mxGeometry relative="1" as="geometry">
            <mxPoint x="-720" y="-100" as="sourcePoint" />
            <mxPoint x="-560" y="-100" as="targetPoint" />
          </mxGeometry>
        </mxCell>
        <mxCell id="WcBlXuips53iL-ILThBr-98" value="N" style="edgeLabel;html=1;align=center;verticalAlign=middle;resizable=0;points=[];" vertex="1" connectable="0" parent="WcBlXuips53iL-ILThBr-96">
          <mxGeometry x="-0.5845" y="-8" relative="1" as="geometry">
            <mxPoint as="offset" />
          </mxGeometry>
        </mxCell>
        <mxCell id="WcBlXuips53iL-ILThBr-97" value="1" style="text;html=1;align=center;verticalAlign=middle;resizable=0;points=[];autosize=1;strokeColor=none;fillColor=none;" vertex="1" parent="1">
          <mxGeometry x="-735" y="38" width="30" height="30" as="geometry" />
        </mxCell>
        <mxCell id="WcBlXuips53iL-ILThBr-99" value="1" style="text;html=1;align=center;verticalAlign=middle;resizable=0;points=[];autosize=1;strokeColor=none;fillColor=none;" vertex="1" parent="1">
          <mxGeometry x="445" y="358" width="30" height="30" as="geometry" />
        </mxCell>
        <mxCell id="WcBlXuips53iL-ILThBr-100" value="N" style="text;html=1;align=center;verticalAlign=middle;resizable=0;points=[];autosize=1;strokeColor=none;fillColor=none;" vertex="1" parent="1">
          <mxGeometry x="465" y="488" width="30" height="30" as="geometry" />
        </mxCell>
        <mxCell id="WcBlXuips53iL-ILThBr-112" style="edgeStyle=none;rounded=0;orthogonalLoop=1;jettySize=auto;html=1;exitX=1;exitY=0;exitDx=0;exitDy=0;" edge="1" parent="1" source="WcBlXuips53iL-ILThBr-101" target="WcBlXuips53iL-ILThBr-105">
          <mxGeometry relative="1" as="geometry" />
        </mxCell>
        <mxCell id="WcBlXuips53iL-ILThBr-115" style="edgeStyle=none;rounded=0;orthogonalLoop=1;jettySize=auto;html=1;exitX=0;exitY=0;exitDx=0;exitDy=0;entryX=1;entryY=0.5;entryDx=0;entryDy=0;" edge="1" parent="1" source="WcBlXuips53iL-ILThBr-101" target="WcBlXuips53iL-ILThBr-107">
          <mxGeometry relative="1" as="geometry" />
        </mxCell>
        <mxCell id="WcBlXuips53iL-ILThBr-101" value="user_comment_like" style="rounded=1;arcSize=10;whiteSpace=wrap;html=1;align=center;" vertex="1" parent="1">
          <mxGeometry x="-625" y="-318" width="100" height="40" as="geometry" />
        </mxCell>
        <mxCell id="WcBlXuips53iL-ILThBr-103" value="uid" style="ellipse;whiteSpace=wrap;html=1;align=center;fontStyle=4;" vertex="1" parent="1">
          <mxGeometry x="-650" y="-402" width="70" height="40" as="geometry" />
        </mxCell>
        <mxCell id="WcBlXuips53iL-ILThBr-104" value="user_uid" style="ellipse;whiteSpace=wrap;html=1;align=center;" vertex="1" parent="1">
          <mxGeometry x="-560" y="-402" width="70" height="40" as="geometry" />
        </mxCell>
        <mxCell id="WcBlXuips53iL-ILThBr-105" value="comment_uid" style="ellipse;whiteSpace=wrap;html=1;align=center;" vertex="1" parent="1">
          <mxGeometry x="-510" y="-342" width="70" height="40" as="geometry" />
        </mxCell>
        <mxCell id="WcBlXuips53iL-ILThBr-107" value="create_time" style="ellipse;whiteSpace=wrap;html=1;align=center;" vertex="1" parent="1">
          <mxGeometry x="-705" y="-348" width="70" height="40" as="geometry" />
        </mxCell>
        <mxCell id="WcBlXuips53iL-ILThBr-109" value="update_time" style="ellipse;whiteSpace=wrap;html=1;align=center;" vertex="1" parent="1">
          <mxGeometry x="-650" y="-242" width="70" height="40" as="geometry" />
        </mxCell>
        <mxCell id="WcBlXuips53iL-ILThBr-110" style="edgeStyle=none;rounded=0;orthogonalLoop=1;jettySize=auto;html=1;exitX=0.5;exitY=1;exitDx=0;exitDy=0;" edge="1" parent="1" source="WcBlXuips53iL-ILThBr-104" target="WcBlXuips53iL-ILThBr-104">
          <mxGeometry relative="1" as="geometry" />
        </mxCell>
        <mxCell id="WcBlXuips53iL-ILThBr-111" value="status" style="ellipse;whiteSpace=wrap;html=1;align=center;" vertex="1" parent="1">
          <mxGeometry x="-560" y="-247" width="70" height="40" as="geometry" />
        </mxCell>
        <mxCell id="WcBlXuips53iL-ILThBr-113" style="edgeStyle=none;rounded=0;orthogonalLoop=1;jettySize=auto;html=1;exitX=0.75;exitY=0;exitDx=0;exitDy=0;entryX=0.403;entryY=0.966;entryDx=0;entryDy=0;entryPerimeter=0;" edge="1" parent="1" source="WcBlXuips53iL-ILThBr-101" target="WcBlXuips53iL-ILThBr-104">
          <mxGeometry relative="1" as="geometry" />
        </mxCell>
        <mxCell id="WcBlXuips53iL-ILThBr-114" style="edgeStyle=none;rounded=0;orthogonalLoop=1;jettySize=auto;html=1;exitX=0.5;exitY=0;exitDx=0;exitDy=0;entryX=0.586;entryY=0.931;entryDx=0;entryDy=0;entryPerimeter=0;" edge="1" parent="1" source="WcBlXuips53iL-ILThBr-101" target="WcBlXuips53iL-ILThBr-103">
          <mxGeometry relative="1" as="geometry" />
        </mxCell>
        <mxCell id="WcBlXuips53iL-ILThBr-117" style="edgeStyle=none;rounded=0;orthogonalLoop=1;jettySize=auto;html=1;exitX=0.75;exitY=1;exitDx=0;exitDy=0;entryX=0.275;entryY=0.142;entryDx=0;entryDy=0;entryPerimeter=0;" edge="1" parent="1" source="WcBlXuips53iL-ILThBr-101" target="WcBlXuips53iL-ILThBr-111">
          <mxGeometry relative="1" as="geometry" />
        </mxCell>
        <mxCell id="WcBlXuips53iL-ILThBr-118" style="edgeStyle=none;rounded=0;orthogonalLoop=1;jettySize=auto;html=1;exitX=0.25;exitY=1;exitDx=0;exitDy=0;entryX=0.596;entryY=0.034;entryDx=0;entryDy=0;entryPerimeter=0;" edge="1" parent="1" source="WcBlXuips53iL-ILThBr-101" target="WcBlXuips53iL-ILThBr-109">
          <mxGeometry relative="1" as="geometry" />
        </mxCell>
        <mxCell id="WcBlXuips53iL-ILThBr-120" value="评论点赞" style="shape=rhombus;double=1;perimeter=rhombusPerimeter;whiteSpace=wrap;html=1;align=center;" vertex="1" parent="1">
          <mxGeometry x="-405" y="-272" width="120" height="60" as="geometry" />
        </mxCell>
        <mxCell id="WcBlXuips53iL-ILThBr-121" value="" style="endArrow=none;html=1;rounded=0;exitX=1;exitY=0.5;exitDx=0;exitDy=0;entryX=0;entryY=0.5;entryDx=0;entryDy=0;strokeColor=#30F036;" edge="1" parent="1" source="WcBlXuips53iL-ILThBr-101" target="WcBlXuips53iL-ILThBr-120">
          <mxGeometry relative="1" as="geometry">
            <mxPoint x="-460" y="-170" as="sourcePoint" />
            <mxPoint x="-300" y="-170" as="targetPoint" />
          </mxGeometry>
        </mxCell>
        <mxCell id="WcBlXuips53iL-ILThBr-122" value="" style="endArrow=none;html=1;rounded=0;exitX=0.5;exitY=1;exitDx=0;exitDy=0;entryX=0.389;entryY=-0.007;entryDx=0;entryDy=0;entryPerimeter=0;strokeColor=#30F036;" edge="1" parent="1" source="WcBlXuips53iL-ILThBr-120" target="ZKtk_AyoDZIeiduYIY-5-58">
          <mxGeometry relative="1" as="geometry">
            <mxPoint x="-220" y="-220" as="sourcePoint" />
            <mxPoint x="-60" y="-220" as="targetPoint" />
          </mxGeometry>
        </mxCell>
        <mxCell id="WcBlXuips53iL-ILThBr-123" value="评论点赞" style="shape=rhombus;double=1;perimeter=rhombusPerimeter;whiteSpace=wrap;html=1;align=center;" vertex="1" parent="1">
          <mxGeometry x="-895" y="-207" width="120" height="60" as="geometry" />
        </mxCell>
        <mxCell id="WcBlXuips53iL-ILThBr-124" value="" style="endArrow=none;html=1;rounded=0;exitX=0.5;exitY=0;exitDx=0;exitDy=0;entryX=0;entryY=0.75;entryDx=0;entryDy=0;strokeColor=#30F036;" edge="1" parent="1" source="WcBlXuips53iL-ILThBr-123" target="WcBlXuips53iL-ILThBr-101">
          <mxGeometry relative="1" as="geometry">
            <mxPoint x="-700" y="-110" as="sourcePoint" />
            <mxPoint x="-540" y="-110" as="targetPoint" />
          </mxGeometry>
        </mxCell>
        <mxCell id="WcBlXuips53iL-ILThBr-125" value="" style="endArrow=none;html=1;rounded=0;exitX=0.548;exitY=0.01;exitDx=0;exitDy=0;exitPerimeter=0;strokeColor=#30F036;" edge="1" parent="1" source="WcBlXuips53iL-ILThBr-37" target="WcBlXuips53iL-ILThBr-123">
          <mxGeometry relative="1" as="geometry">
            <mxPoint x="-740" y="-120" as="sourcePoint" />
            <mxPoint x="-580" y="-120" as="targetPoint" />
          </mxGeometry>
        </mxCell>
        <mxCell id="WcBlXuips53iL-ILThBr-126" value="1" style="text;html=1;align=center;verticalAlign=middle;resizable=0;points=[];autosize=1;strokeColor=none;fillColor=none;" vertex="1" parent="1">
          <mxGeometry x="-865" y="-142" width="30" height="30" as="geometry" />
        </mxCell>
        <mxCell id="WcBlXuips53iL-ILThBr-127" value="N" style="text;html=1;align=center;verticalAlign=middle;resizable=0;points=[];autosize=1;strokeColor=none;fillColor=none;" vertex="1" parent="1">
          <mxGeometry x="-795" y="-232" width="30" height="30" as="geometry" />
        </mxCell>
        <mxCell id="WcBlXuips53iL-ILThBr-128" value="N" style="text;html=1;align=center;verticalAlign=middle;resizable=0;points=[];autosize=1;strokeColor=none;fillColor=none;" vertex="1" parent="1">
          <mxGeometry x="-465" y="-262" width="30" height="30" as="geometry" />
        </mxCell>
        <mxCell id="WcBlXuips53iL-ILThBr-129" value="M" style="text;html=1;align=center;verticalAlign=middle;resizable=0;points=[];autosize=1;strokeColor=none;fillColor=none;" vertex="1" parent="1">
          <mxGeometry x="-365" y="-212" width="30" height="30" as="geometry" />
        </mxCell>
        <mxCell id="WcBlXuips53iL-ILThBr-130" style="edgeStyle=none;rounded=0;orthogonalLoop=1;jettySize=auto;html=1;exitX=1;exitY=0;exitDx=0;exitDy=0;" edge="1" parent="1" source="WcBlXuips53iL-ILThBr-132" target="WcBlXuips53iL-ILThBr-135">
          <mxGeometry relative="1" as="geometry" />
        </mxCell>
        <mxCell id="WcBlXuips53iL-ILThBr-131" style="edgeStyle=none;rounded=0;orthogonalLoop=1;jettySize=auto;html=1;exitX=0;exitY=0;exitDx=0;exitDy=0;entryX=1;entryY=0.5;entryDx=0;entryDy=0;" edge="1" parent="1" source="WcBlXuips53iL-ILThBr-132" target="WcBlXuips53iL-ILThBr-136">
          <mxGeometry relative="1" as="geometry" />
        </mxCell>
        <mxCell id="WcBlXuips53iL-ILThBr-132" value="user_blog_like" style="rounded=1;arcSize=10;whiteSpace=wrap;html=1;align=center;" vertex="1" parent="1">
          <mxGeometry x="-430" y="327" width="100" height="40" as="geometry" />
        </mxCell>
        <mxCell id="WcBlXuips53iL-ILThBr-133" value="uid" style="ellipse;whiteSpace=wrap;html=1;align=center;fontStyle=4;" vertex="1" parent="1">
          <mxGeometry x="-455" y="243" width="70" height="40" as="geometry" />
        </mxCell>
        <mxCell id="WcBlXuips53iL-ILThBr-134" value="user_uid" style="ellipse;whiteSpace=wrap;html=1;align=center;" vertex="1" parent="1">
          <mxGeometry x="-365" y="243" width="70" height="40" as="geometry" />
        </mxCell>
        <mxCell id="WcBlXuips53iL-ILThBr-135" value="blog_uid" style="ellipse;whiteSpace=wrap;html=1;align=center;" vertex="1" parent="1">
          <mxGeometry x="-315" y="303" width="70" height="40" as="geometry" />
        </mxCell>
        <mxCell id="WcBlXuips53iL-ILThBr-136" value="create_time" style="ellipse;whiteSpace=wrap;html=1;align=center;" vertex="1" parent="1">
          <mxGeometry x="-510" y="297" width="70" height="40" as="geometry" />
        </mxCell>
        <mxCell id="WcBlXuips53iL-ILThBr-137" value="update_time" style="ellipse;whiteSpace=wrap;html=1;align=center;" vertex="1" parent="1">
          <mxGeometry x="-455" y="403" width="70" height="40" as="geometry" />
        </mxCell>
        <mxCell id="WcBlXuips53iL-ILThBr-138" style="edgeStyle=none;rounded=0;orthogonalLoop=1;jettySize=auto;html=1;exitX=0.5;exitY=1;exitDx=0;exitDy=0;" edge="1" parent="1" source="WcBlXuips53iL-ILThBr-134" target="WcBlXuips53iL-ILThBr-134">
          <mxGeometry relative="1" as="geometry" />
        </mxCell>
        <mxCell id="WcBlXuips53iL-ILThBr-139" value="status" style="ellipse;whiteSpace=wrap;html=1;align=center;" vertex="1" parent="1">
          <mxGeometry x="-365" y="398" width="70" height="40" as="geometry" />
        </mxCell>
        <mxCell id="WcBlXuips53iL-ILThBr-140" style="edgeStyle=none;rounded=0;orthogonalLoop=1;jettySize=auto;html=1;exitX=0.75;exitY=0;exitDx=0;exitDy=0;entryX=0.403;entryY=0.966;entryDx=0;entryDy=0;entryPerimeter=0;" edge="1" parent="1" source="WcBlXuips53iL-ILThBr-132" target="WcBlXuips53iL-ILThBr-134">
          <mxGeometry relative="1" as="geometry" />
        </mxCell>
        <mxCell id="WcBlXuips53iL-ILThBr-141" style="edgeStyle=none;rounded=0;orthogonalLoop=1;jettySize=auto;html=1;exitX=0.5;exitY=0;exitDx=0;exitDy=0;entryX=0.586;entryY=0.931;entryDx=0;entryDy=0;entryPerimeter=0;" edge="1" parent="1" source="WcBlXuips53iL-ILThBr-132" target="WcBlXuips53iL-ILThBr-133">
          <mxGeometry relative="1" as="geometry" />
        </mxCell>
        <mxCell id="WcBlXuips53iL-ILThBr-142" style="edgeStyle=none;rounded=0;orthogonalLoop=1;jettySize=auto;html=1;exitX=0.75;exitY=1;exitDx=0;exitDy=0;entryX=0.275;entryY=0.142;entryDx=0;entryDy=0;entryPerimeter=0;" edge="1" parent="1" source="WcBlXuips53iL-ILThBr-132" target="WcBlXuips53iL-ILThBr-139">
          <mxGeometry relative="1" as="geometry" />
        </mxCell>
        <mxCell id="WcBlXuips53iL-ILThBr-143" style="edgeStyle=none;rounded=0;orthogonalLoop=1;jettySize=auto;html=1;exitX=0.25;exitY=1;exitDx=0;exitDy=0;entryX=0.596;entryY=0.034;entryDx=0;entryDy=0;entryPerimeter=0;" edge="1" parent="1" source="WcBlXuips53iL-ILThBr-132" target="WcBlXuips53iL-ILThBr-137">
          <mxGeometry relative="1" as="geometry" />
        </mxCell>
        <mxCell id="WcBlXuips53iL-ILThBr-145" value="博客点赞" style="shape=rhombus;double=1;perimeter=rhombusPerimeter;whiteSpace=wrap;html=1;align=center;" vertex="1" parent="1">
          <mxGeometry x="-190" y="315" width="120" height="60" as="geometry" />
        </mxCell>
        <mxCell id="WcBlXuips53iL-ILThBr-146" value="" style="endArrow=none;html=1;rounded=0;exitX=1;exitY=0.5;exitDx=0;exitDy=0;entryX=0;entryY=1;entryDx=0;entryDy=0;strokeColor=#30F036;" edge="1" parent="1" source="WcBlXuips53iL-ILThBr-145" target="ZLtcyuYyuE42bDOaXPlK-46">
          <mxGeometry relative="1" as="geometry">
            <mxPoint x="-30" y="420" as="sourcePoint" />
            <mxPoint x="130" y="420" as="targetPoint" />
          </mxGeometry>
        </mxCell>
        <mxCell id="WcBlXuips53iL-ILThBr-147" value="" style="endArrow=none;html=1;rounded=0;exitX=1;exitY=0.75;exitDx=0;exitDy=0;entryX=0;entryY=0.5;entryDx=0;entryDy=0;strokeColor=#30F036;" edge="1" parent="1" source="WcBlXuips53iL-ILThBr-132" target="WcBlXuips53iL-ILThBr-145">
          <mxGeometry relative="1" as="geometry">
            <mxPoint x="-220" y="440" as="sourcePoint" />
            <mxPoint x="-60" y="440" as="targetPoint" />
          </mxGeometry>
        </mxCell>
        <mxCell id="WcBlXuips53iL-ILThBr-148" value="博客点赞" style="shape=rhombus;double=1;perimeter=rhombusPerimeter;whiteSpace=wrap;html=1;align=center;" vertex="1" parent="1">
          <mxGeometry x="-775" y="252" width="120" height="60" as="geometry" />
        </mxCell>
        <mxCell id="WcBlXuips53iL-ILThBr-149" value="" style="endArrow=none;html=1;rounded=0;exitX=0.9;exitY=1;exitDx=0;exitDy=0;exitPerimeter=0;entryX=0;entryY=0.5;entryDx=0;entryDy=0;strokeColor=#30F036;" edge="1" parent="1" source="WcBlXuips53iL-ILThBr-37" target="WcBlXuips53iL-ILThBr-148">
          <mxGeometry relative="1" as="geometry">
            <mxPoint x="-890" y="320" as="sourcePoint" />
            <mxPoint x="-730" y="320" as="targetPoint" />
          </mxGeometry>
        </mxCell>
        <mxCell id="WcBlXuips53iL-ILThBr-150" value="" style="endArrow=none;html=1;rounded=0;exitX=1;exitY=0.5;exitDx=0;exitDy=0;entryX=0;entryY=0.75;entryDx=0;entryDy=0;strokeColor=#21FF72;" edge="1" parent="1" source="WcBlXuips53iL-ILThBr-148" target="WcBlXuips53iL-ILThBr-132">
          <mxGeometry relative="1" as="geometry">
            <mxPoint x="-690" y="400" as="sourcePoint" />
            <mxPoint x="-530" y="400" as="targetPoint" />
          </mxGeometry>
        </mxCell>
        <mxCell id="WcBlXuips53iL-ILThBr-181" style="edgeStyle=none;rounded=0;orthogonalLoop=1;jettySize=auto;html=1;exitX=1;exitY=0;exitDx=0;exitDy=0;" edge="1" parent="1" source="WcBlXuips53iL-ILThBr-183" target="WcBlXuips53iL-ILThBr-186">
          <mxGeometry relative="1" as="geometry" />
        </mxCell>
        <mxCell id="WcBlXuips53iL-ILThBr-182" style="edgeStyle=none;rounded=0;orthogonalLoop=1;jettySize=auto;html=1;exitX=0;exitY=0;exitDx=0;exitDy=0;entryX=1;entryY=0.5;entryDx=0;entryDy=0;" edge="1" parent="1" source="WcBlXuips53iL-ILThBr-183" target="WcBlXuips53iL-ILThBr-187">
          <mxGeometry relative="1" as="geometry" />
        </mxCell>
        <mxCell id="WcBlXuips53iL-ILThBr-183" value="user_blog_favorites" style="rounded=1;arcSize=10;whiteSpace=wrap;html=1;align=center;" vertex="1" parent="1">
          <mxGeometry x="-460" y="601" width="100" height="40" as="geometry" />
        </mxCell>
        <mxCell id="WcBlXuips53iL-ILThBr-184" value="uid" style="ellipse;whiteSpace=wrap;html=1;align=center;fontStyle=4;" vertex="1" parent="1">
          <mxGeometry x="-485" y="517" width="70" height="40" as="geometry" />
        </mxCell>
        <mxCell id="WcBlXuips53iL-ILThBr-185" value="user_uid" style="ellipse;whiteSpace=wrap;html=1;align=center;" vertex="1" parent="1">
          <mxGeometry x="-395" y="517" width="70" height="40" as="geometry" />
        </mxCell>
        <mxCell id="WcBlXuips53iL-ILThBr-186" value="blog_uid" style="ellipse;whiteSpace=wrap;html=1;align=center;" vertex="1" parent="1">
          <mxGeometry x="-345" y="577" width="70" height="40" as="geometry" />
        </mxCell>
        <mxCell id="WcBlXuips53iL-ILThBr-187" value="create_time" style="ellipse;whiteSpace=wrap;html=1;align=center;" vertex="1" parent="1">
          <mxGeometry x="-540" y="571" width="70" height="40" as="geometry" />
        </mxCell>
        <mxCell id="WcBlXuips53iL-ILThBr-188" value="update_time" style="ellipse;whiteSpace=wrap;html=1;align=center;" vertex="1" parent="1">
          <mxGeometry x="-485" y="677" width="70" height="40" as="geometry" />
        </mxCell>
        <mxCell id="WcBlXuips53iL-ILThBr-189" style="edgeStyle=none;rounded=0;orthogonalLoop=1;jettySize=auto;html=1;exitX=0.5;exitY=1;exitDx=0;exitDy=0;" edge="1" parent="1" source="WcBlXuips53iL-ILThBr-185" target="WcBlXuips53iL-ILThBr-185">
          <mxGeometry relative="1" as="geometry" />
        </mxCell>
        <mxCell id="WcBlXuips53iL-ILThBr-190" value="status" style="ellipse;whiteSpace=wrap;html=1;align=center;" vertex="1" parent="1">
          <mxGeometry x="-395" y="672" width="70" height="40" as="geometry" />
        </mxCell>
        <mxCell id="WcBlXuips53iL-ILThBr-191" style="edgeStyle=none;rounded=0;orthogonalLoop=1;jettySize=auto;html=1;exitX=0.75;exitY=0;exitDx=0;exitDy=0;entryX=0.403;entryY=0.966;entryDx=0;entryDy=0;entryPerimeter=0;" edge="1" parent="1" source="WcBlXuips53iL-ILThBr-183" target="WcBlXuips53iL-ILThBr-185">
          <mxGeometry relative="1" as="geometry" />
        </mxCell>
        <mxCell id="WcBlXuips53iL-ILThBr-192" style="edgeStyle=none;rounded=0;orthogonalLoop=1;jettySize=auto;html=1;exitX=0.5;exitY=0;exitDx=0;exitDy=0;entryX=0.586;entryY=0.931;entryDx=0;entryDy=0;entryPerimeter=0;" edge="1" parent="1" source="WcBlXuips53iL-ILThBr-183" target="WcBlXuips53iL-ILThBr-184">
          <mxGeometry relative="1" as="geometry" />
        </mxCell>
        <mxCell id="WcBlXuips53iL-ILThBr-193" style="edgeStyle=none;rounded=0;orthogonalLoop=1;jettySize=auto;html=1;exitX=0.75;exitY=1;exitDx=0;exitDy=0;entryX=0.275;entryY=0.142;entryDx=0;entryDy=0;entryPerimeter=0;" edge="1" parent="1" source="WcBlXuips53iL-ILThBr-183" target="WcBlXuips53iL-ILThBr-190">
          <mxGeometry relative="1" as="geometry" />
        </mxCell>
        <mxCell id="WcBlXuips53iL-ILThBr-194" style="edgeStyle=none;rounded=0;orthogonalLoop=1;jettySize=auto;html=1;exitX=0.25;exitY=1;exitDx=0;exitDy=0;entryX=0.596;entryY=0.034;entryDx=0;entryDy=0;entryPerimeter=0;" edge="1" parent="1" source="WcBlXuips53iL-ILThBr-183" target="WcBlXuips53iL-ILThBr-188">
          <mxGeometry relative="1" as="geometry" />
        </mxCell>
        <mxCell id="WcBlXuips53iL-ILThBr-196" value="M" style="text;html=1;align=center;verticalAlign=middle;resizable=0;points=[];autosize=1;strokeColor=none;fillColor=none;" vertex="1" parent="1">
          <mxGeometry x="745" y="508" width="30" height="30" as="geometry" />
        </mxCell>
        <mxCell id="WcBlXuips53iL-ILThBr-197" value="M" style="text;html=1;align=center;verticalAlign=middle;resizable=0;points=[];autosize=1;strokeColor=none;fillColor=none;" vertex="1" parent="1">
          <mxGeometry x="-45" y="328" width="30" height="30" as="geometry" />
        </mxCell>
        <mxCell id="WcBlXuips53iL-ILThBr-198" value="N" style="text;html=1;align=center;verticalAlign=middle;resizable=0;points=[];autosize=1;strokeColor=none;fillColor=none;" vertex="1" parent="1">
          <mxGeometry x="-225" y="348" width="30" height="30" as="geometry" />
        </mxCell>
        <mxCell id="WcBlXuips53iL-ILThBr-199" value="1" style="text;html=1;align=center;verticalAlign=middle;resizable=0;points=[];autosize=1;strokeColor=none;fillColor=none;" vertex="1" parent="1">
          <mxGeometry x="-845" y="248" width="30" height="30" as="geometry" />
        </mxCell>
        <mxCell id="WcBlXuips53iL-ILThBr-200" value="N" style="text;html=1;align=center;verticalAlign=middle;resizable=0;points=[];autosize=1;strokeColor=none;fillColor=none;" vertex="1" parent="1">
          <mxGeometry x="-635" y="298" width="30" height="30" as="geometry" />
        </mxCell>
        <mxCell id="WcBlXuips53iL-ILThBr-201" value="博客收藏" style="shape=rhombus;double=1;perimeter=rhombusPerimeter;whiteSpace=wrap;html=1;align=center;" vertex="1" parent="1">
          <mxGeometry x="-190" y="557" width="120" height="60" as="geometry" />
        </mxCell>
        <mxCell id="WcBlXuips53iL-ILThBr-202" value="" style="endArrow=none;html=1;rounded=0;exitX=1;exitY=0.5;exitDx=0;exitDy=0;entryX=0.25;entryY=1;entryDx=0;entryDy=0;strokeColor=#30F036;" edge="1" parent="1" source="WcBlXuips53iL-ILThBr-201" target="ZLtcyuYyuE42bDOaXPlK-46">
          <mxGeometry relative="1" as="geometry">
            <mxPoint x="-20" y="490" as="sourcePoint" />
            <mxPoint x="140" y="490" as="targetPoint" />
          </mxGeometry>
        </mxCell>
        <mxCell id="WcBlXuips53iL-ILThBr-203" value="" style="endArrow=none;html=1;rounded=0;exitX=0;exitY=0.5;exitDx=0;exitDy=0;entryX=1;entryY=0.75;entryDx=0;entryDy=0;strokeColor=#21FF72;" edge="1" parent="1" source="WcBlXuips53iL-ILThBr-201" target="WcBlXuips53iL-ILThBr-183">
          <mxGeometry relative="1" as="geometry">
            <mxPoint x="-410" y="320" as="sourcePoint" />
            <mxPoint x="-250" y="320" as="targetPoint" />
          </mxGeometry>
        </mxCell>
        <mxCell id="WcBlXuips53iL-ILThBr-204" value="1" style="text;html=1;align=center;verticalAlign=middle;resizable=0;points=[];autosize=1;strokeColor=none;fillColor=none;" vertex="1" parent="1">
          <mxGeometry x="15" y="498" width="30" height="30" as="geometry" />
        </mxCell>
        <mxCell id="WcBlXuips53iL-ILThBr-205" value="N" style="text;html=1;align=center;verticalAlign=middle;resizable=0;points=[];autosize=1;strokeColor=none;fillColor=none;" vertex="1" parent="1">
          <mxGeometry x="-245" y="598" width="30" height="30" as="geometry" />
        </mxCell>
        <mxCell id="WcBlXuips53iL-ILThBr-206" value="博客收藏" style="shape=rhombus;double=1;perimeter=rhombusPerimeter;whiteSpace=wrap;html=1;align=center;" vertex="1" parent="1">
          <mxGeometry x="-820" y="483" width="120" height="60" as="geometry" />
        </mxCell>
        <mxCell id="WcBlXuips53iL-ILThBr-207" value="" style="endArrow=none;html=1;rounded=0;exitX=1;exitY=0.5;exitDx=0;exitDy=0;entryX=0;entryY=0.75;entryDx=0;entryDy=0;strokeColor=#30F036;" edge="1" parent="1" source="WcBlXuips53iL-ILThBr-206" target="WcBlXuips53iL-ILThBr-183">
          <mxGeometry relative="1" as="geometry">
            <mxPoint x="-790" y="680" as="sourcePoint" />
            <mxPoint x="-630" y="680" as="targetPoint" />
          </mxGeometry>
        </mxCell>
        <mxCell id="WcBlXuips53iL-ILThBr-208" value="" style="endArrow=none;html=1;rounded=0;exitX=0.5;exitY=1;exitDx=0;exitDy=0;entryX=0.089;entryY=0.459;entryDx=0;entryDy=0;entryPerimeter=0;strokeColor=#21FF72;" edge="1" parent="1" source="WcBlXuips53iL-ILThBr-37" target="WcBlXuips53iL-ILThBr-206">
          <mxGeometry relative="1" as="geometry">
            <mxPoint x="-960" y="560" as="sourcePoint" />
            <mxPoint x="-800" y="560" as="targetPoint" />
          </mxGeometry>
        </mxCell>
        <mxCell id="WcBlXuips53iL-ILThBr-209" value="1" style="text;html=1;align=center;verticalAlign=middle;resizable=0;points=[];autosize=1;strokeColor=none;fillColor=none;" vertex="1" parent="1">
          <mxGeometry x="-905" y="408" width="30" height="30" as="geometry" />
        </mxCell>
        <mxCell id="WcBlXuips53iL-ILThBr-210" value="N" style="text;html=1;align=center;verticalAlign=middle;resizable=0;points=[];autosize=1;strokeColor=none;fillColor=none;" vertex="1" parent="1">
          <mxGeometry x="-705" y="538" width="30" height="30" as="geometry" />
        </mxCell>
      </root>
    </mxGraphModel>
  </diagram>
</mxfile>
